<?xml version="1.0" standalone="no"?>
<!DOCTYPE svg PUBLIC "-//W3C//DTD SVG 20010904//EN"
 "http://www.w3.org/TR/2001/REC-SVG-20010904/DTD/svg10.dtd">
<svg version="1.0" xmlns="http://www.w3.org/2000/svg"
 width="2340.000000pt" height="1809.000000pt" viewBox="0 0 2340.000000 1809.000000"
 preserveAspectRatio="xMidYMid meet">

<g transform="translate(0.000000,1809.000000) scale(0.100000,-0.100000)"
fill="#000000" stroke="none">
<path d="M9887 17733 c-10 -16 -57 -243 -71 -343 -9 -58 -25 -199 -36 -315
-12 -115 -34 -331 -50 -480 -31 -285 -62 -742 -53 -787 12 -60 70 -75 106 -27
17 23 21 57 33 260 8 129 27 365 44 524 47 466 76 907 65 1015 -2 25 -4 71 -4
103 -1 43 -5 57 -15 57 -8 0 -17 -3 -19 -7z"/>
<path d="M10078 17449 c-30 -22 -36 -54 -15 -83 15 -21 216 -78 334 -96 221
-33 326 -50 331 -55 8 -8 -42 -67 -191 -227 -149 -160 -289 -326 -321 -382
-11 -18 -17 -40 -13 -49 10 -26 54 -49 77 -42 34 11 338 319 433 439 95 120
167 247 167 294 0 63 -27 77 -245 132 -200 50 -420 90 -492 90 -22 -1 -49 -9
-65 -21z"/>
<path d="M13673 17195 c-18 -8 -33 -18 -33 -24 0 -5 -16 -19 -35 -31 -64 -39
-85 -122 -45 -173 28 -36 116 -77 164 -77 156 0 198 235 53 300 -50 23 -62 24
-104 5z m71 -96 c20 -15 26 -29 26 -58 0 -44 -14 -61 -52 -61 -31 0 -88 25
-100 44 -14 21 -8 47 17 71 30 31 73 32 109 4z"/>
<path d="M9078 17188 c-8 -7 -66 -89 -128 -183 -128 -194 -310 -527 -310 -569
0 -39 46 -81 111 -100 77 -23 165 -33 404 -46 115 -6 232 -16 259 -21 69 -13
83 -12 106 11 24 24 26 72 5 90 -21 17 -179 36 -365 44 -154 7 -348 24 -361
32 -11 6 147 308 262 500 60 100 109 191 109 202 0 43 -57 68 -92 40z"/>
<path d="M14095 16940 c40 -20 963 -383 1040 -410 73 -25 496 -181 503 -186 1
-1 -5 -29 -14 -63 -14 -51 -15 -67 -5 -101 26 -88 117 -154 211 -154 68 1 106
20 159 80 54 62 77 135 61 196 -16 60 -56 115 -106 144 -38 22 -49 24 -111 18
-76 -7 -96 -15 -134 -51 l-27 -24 -138 54 c-77 30 -213 81 -304 112 -91 31
-230 82 -310 112 -262 99 -722 255 -825 278 l-20 5 20 -10z m1747 -570 c30 0
46 -7 68 -29 55 -55 52 -112 -11 -174 -37 -37 -42 -39 -85 -34 -84 9 -120 71
-89 157 22 63 44 93 62 86 8 -3 33 -6 55 -6z"/>
<path d="M16255 16315 c177 -18 681 -80 897 -110 175 -25 564 -55 704 -55 87
0 132 13 115 34 -17 20 -46 24 -336 41 -143 9 -354 27 -470 40 -380 44 -705
66 -925 64 l-115 -1 130 -13z"/>
<path d="M18163 16315 c-13 -9 -23 -20 -23 -24 0 -5 -19 -27 -41 -50 -41 -40
-41 -42 -37 -98 4 -49 10 -61 41 -89 138 -127 327 19 248 191 -27 59 -53 78
-114 82 -37 3 -58 0 -74 -12z m70 -76 c30 -16 37 -28 37 -71 0 -44 -21 -68
-61 -68 -33 0 -79 38 -79 65 0 35 39 84 68 85 7 0 23 -5 35 -11z"/>
<path d="M14930 16299 c-110 -9 -266 -39 -395 -76 -252 -72 -609 -228 -836
-365 -100 -60 -279 -192 -279 -205 0 -3 8 1 18 9 60 54 444 257 640 339 137
57 364 138 472 168 227 64 346 79 708 87 353 8 392 21 132 44 -131 11 -320 11
-460 -1z"/>
<path d="M16258 16173 c7 -3 16 -2 19 1 4 3 -2 6 -13 5 -11 0 -14 -3 -6 -6z"/>
<path d="M16298 16163 c7 -3 16 -2 19 1 4 3 -2 6 -13 5 -11 0 -14 -3 -6 -6z"/>
<path d="M16331 16156 c2 -2 72 -23 154 -46 213 -59 328 -102 510 -194 269
-136 442 -262 635 -463 181 -187 359 -426 473 -633 48 -88 52 -93 55 -64 9 93
-228 459 -456 704 -229 247 -553 456 -898 579 -133 48 -494 137 -473 117z"/>
<path d="M5615 16081 c-33 -10 -85 -28 -115 -41 -30 -12 -138 -53 -240 -90
-164 -61 -537 -213 -691 -283 -58 -26 -475 -246 -654 -345 -131 -72 -171 -100
-227 -159 -53 -58 -82 -110 -102 -185 -8 -29 -25 -76 -40 -104 -36 -72 -41
-120 -22 -208 43 -193 160 -317 347 -370 29 -8 99 -20 154 -26 l100 -12 275
56 c301 62 261 47 580 213 96 50 258 126 360 169 240 101 678 320 757 378 99
72 173 184 173 259 0 38 -40 104 -60 99 -8 -2 -10 3 -6 15 41 106 48 141 44
233 -4 119 -35 188 -117 270 -132 130 -340 183 -516 131z m295 -120 c111 -43
195 -129 221 -226 19 -67 6 -166 -30 -239 -57 -117 -94 -142 -539 -364 -498
-249 -734 -352 -987 -435 -322 -105 -350 -111 -505 -112 -104 0 -147 4 -186
18 -114 39 -182 138 -191 275 -5 69 -3 86 16 126 34 70 125 146 268 225 504
276 939 493 1128 561 28 10 124 49 215 86 272 110 455 136 590 85z m140 -722
c-42 -36 -332 -183 -348 -178 -16 6 245 166 315 193 32 13 60 21 63 19 3 -3
-11 -18 -30 -34z m-500 -249 c0 -24 -341 -206 -545 -290 -113 -46 -350 -136
-410 -155 -44 -14 193 104 395 196 118 54 285 134 370 178 148 77 190 93 190
71z m-1857 -319 c11 -55 143 -157 241 -186 52 -16 143 -18 238 -6 89 11 103
-2 33 -29 -43 -16 -88 -24 -157 -28 -92 -4 -100 -3 -163 27 -77 35 -180 129
-194 175 -17 57 -22 88 -13 82 5 -3 12 -19 15 -35z"/>
<path d="M5605 15761 c-16 -3 -31 -14 -33 -23 -4 -21 78 -39 158 -36 l55 3 -4
-35 c-1 -19 -12 -61 -23 -93 -21 -62 -18 -107 7 -107 19 0 29 23 55 124 22 86
25 123 11 144 -17 27 -147 40 -226 23z"/>
<path d="M5331 15638 c-5 -13 -14 -56 -21 -97 -6 -41 -13 -78 -16 -83 -3 -5
-33 30 -66 77 -40 58 -65 85 -76 83 -32 -6 -23 -44 24 -113 26 -38 56 -92 67
-120 40 -107 110 -130 91 -30 -5 30 -3 33 27 44 17 6 71 11 119 11 100 0 130
13 106 45 -13 18 -26 20 -114 20 l-99 0 5 67 c5 78 -2 118 -23 118 -9 0 -19
-10 -24 -22z"/>
<path d="M4925 15472 c-41 -26 -51 -39 -68 -99 -27 -90 11 -157 104 -188 60
-20 113 -8 164 36 49 43 69 129 30 129 -7 0 -32 -20 -56 -45 -56 -57 -91 -65
-139 -33 -32 23 -35 28 -33 73 1 26 8 54 16 62 7 8 39 17 70 20 62 6 78 24 44
48 -29 20 -95 19 -132 -3z"/>
<path d="M4620 15348 c0 -13 15 -46 34 -73 18 -28 45 -75 59 -105 41 -88 76
-117 105 -88 21 21 12 40 -72 163 -57 84 -88 121 -104 123 -17 3 -22 -2 -22
-20z"/>
<path d="M4333 15219 c-13 -13 -3 -54 23 -94 10 -16 37 -65 59 -109 34 -69 44
-81 67 -84 53 -6 193 89 186 126 -6 30 -45 25 -109 -14 -50 -31 -62 -35 -70
-23 -5 8 -33 51 -61 96 -59 96 -79 118 -95 102z"/>
<path d="M4144 15131 c-33 -20 -54 -72 -54 -134 0 -126 131 -221 214 -156 32
25 56 69 56 104 0 38 -28 32 -71 -15 -34 -38 -38 -39 -68 -29 -18 6 -38 24
-46 40 -19 36 -19 109 -1 134 13 18 18 18 58 8 47 -13 63 -6 54 24 -14 42 -90
55 -142 24z"/>
<path d="M16070 15960 c-25 -25 -25 -18 4 -213 14 -89 34 -259 46 -377 12
-118 30 -261 41 -318 10 -57 19 -127 19 -156 0 -39 5 -58 20 -74 38 -41 70
-27 114 50 33 59 181 272 198 286 9 6 55 7 133 2 66 -5 168 -9 226 -9 90 -1
108 2 122 17 44 48 19 79 -206 259 -93 75 -198 162 -231 193 -86 79 -322 279
-380 323 -56 42 -77 46 -106 17z m363 -378 c86 -78 207 -180 267 -228 60 -48
108 -89 106 -91 -2 -2 -75 1 -162 7 -191 13 -175 20 -289 -139 -65 -91 -81
-108 -83 -89 -2 13 -12 52 -22 88 -14 46 -23 125 -30 266 -6 111 -18 244 -25
295 -8 52 -15 98 -15 102 0 11 52 -32 253 -211z"/>
<path d="M13105 15545 c-71 -16 -91 -29 -121 -80 -59 -102 -52 -187 25 -266
34 -35 60 -51 100 -63 69 -20 87 -20 137 3 50 23 81 64 105 143 32 101 2 190
-81 239 -55 33 -100 40 -165 24z m74 -87 c66 -39 81 -58 81 -102 -1 -58 -32
-123 -62 -128 -66 -10 -143 39 -154 99 -12 62 38 153 85 153 7 0 30 -10 50
-22z"/>
<path d="M7554 15511 c-35 -22 -68 -63 -90 -116 -30 -74 23 -163 120 -200 89
-34 182 2 224 87 43 85 9 170 -87 220 -63 33 -122 36 -167 9z m124 -80 c60
-55 68 -92 29 -130 -45 -41 -146 -20 -167 35 -15 40 39 144 74 144 6 0 35 -22
64 -49z"/>
<path d="M19683 15384 c-125 -27 -146 -49 -173 -178 -27 -127 -34 -471 -20
-899 18 -565 53 -695 233 -879 104 -105 146 -132 349 -225 132 -61 212 -89
533 -188 66 -21 199 -68 295 -105 286 -111 329 -123 450 -124 132 -1 158 9
205 80 75 113 82 166 52 394 -9 63 -18 174 -22 245 -3 72 -10 186 -15 255 -6
69 -17 249 -25 400 -17 298 -24 358 -56 495 -27 115 -67 197 -127 260 -43 46
-56 54 -147 82 -197 62 -532 172 -645 213 -205 74 -701 192 -794 189 -17 -1
-59 -7 -93 -15z m320 -110 c225 -51 458 -117 607 -172 115 -43 332 -114 590
-193 120 -37 158 -84 195 -236 36 -150 44 -221 65 -593 36 -628 41 -694 60
-838 11 -79 20 -166 20 -195 0 -62 -28 -129 -63 -152 -68 -44 -211 -24 -437
62 -294 112 -359 134 -528 184 -252 73 -538 191 -660 273 -64 44 -121 117
-179 231 -68 133 -98 481 -102 1198 l-1 338 26 59 c28 63 26 62 119 74 52 6
135 -5 288 -40z"/>
<path d="M19830 15142 c-58 -29 -70 -66 -70 -223 0 -75 -5 -183 -11 -240 -20
-186 -15 -551 10 -759 12 -102 26 -202 32 -223 32 -118 288 -277 584 -361 33
-10 150 -56 260 -103 110 -47 243 -98 295 -114 52 -17 149 -48 215 -69 198
-66 221 -57 237 87 9 75 6 126 -16 323 -25 224 -32 318 -56 668 -6 85 -17 188
-24 230 -8 42 -17 114 -20 160 -8 100 -35 176 -86 240 -50 64 -89 81 -298 130
-95 23 -221 60 -280 83 -184 70 -271 98 -450 144 -190 50 -265 56 -322 27z
m342 -118 c176 -54 385 -128 494 -174 22 -9 67 -20 261 -65 124 -29 209 -73
231 -118 8 -16 20 -72 28 -125 8 -53 22 -123 30 -156 8 -32 14 -70 12 -85 -3
-28 -1 -31 -133 183 -46 74 -53 81 -85 84 -33 3 -38 -1 -59 -40 -13 -24 -67
-101 -121 -173 -53 -71 -128 -175 -165 -230 -38 -55 -71 -103 -75 -108 -3 -4
-85 72 -181 168 -213 213 -205 210 -301 103 -35 -40 -100 -118 -143 -173 -43
-55 -88 -108 -99 -117 -21 -17 -21 -16 -29 30 -5 26 -10 271 -13 544 l-5 497
28 16 c41 22 84 14 325 -61z m886 -641 c22 -38 69 -107 105 -156 l64 -87 7
-192 c7 -205 14 -289 47 -571 24 -197 20 -267 -11 -267 -11 0 -43 9 -71 20
-29 12 -101 34 -161 50 -60 17 -209 70 -331 119 -122 49 -269 103 -327 120
-227 66 -352 126 -446 214 -52 49 -55 55 -64 117 -22 165 -27 145 54 229 40
42 113 123 163 181 50 58 97 111 105 118 13 10 34 -9 134 -119 65 -72 142
-158 170 -191 28 -33 58 -65 67 -70 28 -15 55 1 84 50 41 73 141 216 234 335
46 60 93 122 104 138 11 16 23 29 26 29 4 0 25 -30 47 -67z"/>
<path d="M20066 14850 c-98 -30 -152 -186 -90 -259 44 -53 159 -65 236 -25 37
19 68 70 68 111 0 107 -117 202 -214 173z m107 -100 c31 -35 37 -89 11 -111
-22 -18 -130 -25 -149 -9 -17 14 -20 76 -5 115 20 53 96 56 143 5z"/>
<path d="M11005 15329 c-38 -5 -106 -18 -150 -30 -244 -63 -405 -166 -686
-440 -181 -176 -228 -264 -209 -385 13 -78 16 -87 55 -150 20 -30 52 -63 82
-82 56 -36 182 -82 225 -82 34 0 34 -1 3 -48 -32 -49 -58 -153 -50 -201 26
-153 222 -301 400 -301 43 0 50 -11 25 -43 -78 -99 -80 -247 -4 -388 37 -69
108 -123 198 -151 147 -45 433 -1 621 95 110 56 195 143 195 201 0 42 -48 161
-155 386 -56 118 -118 249 -138 290 -35 73 -108 199 -214 367 l-52 81 32 19
c18 11 99 77 180 148 130 114 152 137 180 194 28 57 32 76 32 146 0 138 -48
246 -142 319 -26 20 -69 43 -97 51 -55 17 -215 18 -331 4z m321 -122 c77 -40
124 -121 132 -228 7 -106 -10 -134 -177 -278 -78 -67 -154 -127 -168 -134 -32
-14 -40 -5 -130 148 -80 135 -153 234 -244 330 l-70 73 78 30 c189 72 493 103
579 59z m-605 -219 c34 -62 98 -180 142 -262 43 -81 87 -162 97 -179 l19 -30
-137 -70 c-159 -80 -362 -161 -444 -176 -66 -12 -135 2 -218 44 -64 32 -98 84
-112 167 -11 62 -10 66 18 119 30 56 217 249 346 355 76 63 197 144 214 144 6
0 40 -51 75 -112z m456 -796 c68 -112 123 -209 123 -215 0 -7 -60 -41 -133
-76 -72 -35 -161 -81 -197 -101 -118 -66 -179 -83 -279 -78 -105 6 -178 35
-233 92 -64 66 -78 114 -56 187 20 68 71 114 227 206 80 47 165 99 188 115 24
16 56 28 75 29 18 0 56 11 83 24 28 13 57 23 64 22 8 -1 70 -94 138 -205z
m271 -527 c106 -221 142 -306 142 -334 0 -37 -88 -98 -202 -140 -123 -46 -220
-65 -338 -65 -128 -1 -160 9 -223 64 -62 54 -95 197 -63 273 18 44 95 127 169
183 58 43 385 214 410 214 7 0 54 -88 105 -195z"/>
<path d="M18216 14801 c-3 -5 3 -20 14 -34 23 -29 25 -37 7 -37 -17 0 -60 -46
-80 -85 -55 -111 -8 -256 94 -285 71 -21 164 23 199 95 31 65 35 114 15 179
-24 77 -72 130 -141 155 -58 22 -99 27 -108 12z m142 -161 c47 -92 10 -190
-71 -190 -38 0 -60 33 -65 98 -10 138 80 199 136 92z"/>
<path d="M11616 14705 c-68 -24 -192 -139 -226 -211 -33 -69 -34 -182 -2 -241
52 -99 124 -153 240 -179 57 -13 81 -14 123 -5 65 14 163 66 194 103 33 39 65
130 65 187 0 133 -109 296 -222 331 -70 22 -135 27 -172 15z m126 -115 c54
-15 93 -52 127 -122 36 -72 40 -132 12 -194 -15 -34 -30 -47 -77 -70 -115 -56
-236 -28 -303 71 -31 47 -33 54 -29 115 7 95 63 190 112 190 12 0 28 5 36 10
20 13 76 12 122 0z"/>
<path d="M14990 14229 c-546 -52 -1086 -309 -1389 -660 -131 -151 -250 -370
-298 -549 -31 -116 -41 -276 -24 -398 19 -137 66 -330 100 -410 l31 -74 -59
-141 c-108 -258 -165 -498 -186 -772 -15 -203 45 -515 139 -719 80 -173 252
-381 390 -472 60 -39 60 -39 28 -42 -63 -6 -374 84 -459 134 -117 68 -259 245
-437 545 -142 241 -208 317 -321 372 -42 21 -99 43 -126 49 -38 9 -56 20 -76
47 -59 77 -118 110 -213 118 -118 10 -207 -35 -254 -129 -22 -44 -26 -65 -26
-138 0 -64 5 -95 19 -122 l18 -37 -31 -63 c-30 -61 -31 -68 -31 -193 0 -89 4
-141 14 -165 28 -68 103 -173 170 -238 l68 -66 -116 -39 c-138 -46 -302 -124
-506 -242 -397 -230 -542 -275 -840 -261 -135 6 -258 25 -376 60 -56 17 -56
17 -63 63 -7 56 -44 121 -88 158 -30 25 -38 27 -92 22 -33 -3 -69 -1 -79 5
-11 5 -47 14 -82 19 -70 10 -141 -5 -176 -37 -12 -10 -23 -14 -28 -8 -118 132
-532 717 -606 856 -24 46 -67 139 -95 208 -29 69 -85 188 -125 265 -40 77 -78
157 -85 178 l-12 37 105 103 c151 148 170 205 127 368 -11 41 -20 87 -20 102
0 16 25 95 56 175 60 157 69 213 45 285 -16 48 -36 67 -69 67 -40 0 -121 -42
-170 -88 -24 -22 -45 -35 -47 -29 -2 7 -15 56 -29 110 -14 54 -40 132 -56 174
-17 42 -41 120 -55 173 -40 163 -94 253 -178 295 -61 30 -77 31 -109 6 l-24
-20 -27 83 c-31 93 -76 155 -138 186 -121 62 -199 -20 -186 -194 7 -90 77
-306 178 -555 45 -109 55 -141 41 -136 -9 4 -26 10 -37 12 -30 7 -167 257
-220 401 -98 268 -175 374 -259 358 -57 -11 -106 -84 -106 -159 0 -70 46 -234
90 -320 38 -76 39 -77 12 -59 -82 59 -161 49 -193 -22 -36 -80 -22 -144 96
-419 40 -94 103 -253 140 -352 77 -208 140 -347 188 -413 18 -26 41 -69 51
-95 10 -26 30 -62 44 -79 34 -40 133 -105 185 -120 50 -15 117 -91 162 -183
19 -38 55 -142 80 -230 70 -243 101 -319 327 -795 246 -517 334 -685 446 -844
l55 -79 -59 45 c-65 50 -150 137 -325 333 -201 224 -288 295 -419 342 -107 38
-262 29 -358 -21 -19 -10 -40 -15 -48 -12 -7 3 -43 65 -80 138 -156 312 -290
464 -514 582 -97 51 -261 109 -284 100 -7 -3 -65 11 -127 30 -200 62 -447 102
-695 113 -272 12 -474 -35 -656 -152 -181 -117 -342 -341 -419 -583 l-24 -74
-60 6 c-64 7 -142 -8 -221 -43 -48 -22 -129 -92 -149 -130 -11 -22 -34 -183
-60 -415 l-7 -58 -36 5 c-206 32 -331 63 -537 130 -283 93 -337 107 -413 107
-140 0 -395 -62 -492 -119 -192 -115 -251 -240 -253 -536 0 -211 30 -329 137
-524 49 -90 145 -215 211 -273 84 -76 307 -162 582 -227 312 -73 335 -76 558
-75 220 0 304 11 530 69 146 38 160 43 339 140 194 105 256 174 297 331 23 89
20 172 -9 237 l-17 38 57 58 c65 67 83 101 173 317 65 155 105 298 105 371 0
54 -40 133 -111 218 l-61 74 28 48 c38 65 147 172 210 205 65 35 154 58 222
58 42 0 53 -3 49 -14 -68 -177 -98 -396 -78 -578 29 -263 175 -721 343 -1068
120 -248 263 -585 296 -696 39 -130 88 -347 103 -454 6 -49 11 -196 11 -350
-1 -255 -8 -355 -53 -756 l-11 -101 -137 -21 c-155 -25 -255 -38 -391 -52
-128 -13 -1568 -13 -1718 0 -158 14 -326 43 -445 77 l-98 28 -22 65 c-28 84
-65 145 -127 213 -80 88 -162 103 -507 94 l-234 -6 -62 62 c-111 111 -199 312
-257 583 -106 498 -154 613 -304 731 -132 103 -317 173 -460 173 -271 0 -494
-105 -624 -293 -100 -144 -194 -374 -227 -552 -27 -142 -16 -371 24 -540 17
-71 47 -215 67 -320 46 -254 68 -336 110 -425 99 -209 295 -436 435 -504 142
-70 507 -127 677 -106 139 18 305 81 332 128 34 59 31 59 132 -9 223 -151 277
-185 348 -222 69 -36 80 -39 140 -35 138 9 218 75 296 246 1 2 105 -26 230
-61 126 -36 333 -90 459 -121 127 -31 307 -78 400 -106 216 -64 629 -168 894
-225 113 -25 285 -67 382 -95 183 -52 986 -218 1164 -240 64 -8 117 -21 147
-36 136 -68 358 -118 608 -136 l35 -3 6 -125 c9 -184 49 -371 101 -475 30 -58
112 -166 161 -212 105 -97 297 -200 427 -229 41 -9 118 -29 170 -45 568 -166
800 -185 1205 -97 366 79 554 185 849 476 216 213 366 407 641 827 284 435
421 633 524 759 138 170 315 323 494 424 l88 50 217 -105 c119 -57 289 -138
377 -179 262 -123 242 -110 248 -167 13 -105 95 -215 177 -237 62 -17 191 -8
267 19 l62 21 36 -24 c59 -40 128 -59 205 -54 58 3 75 8 105 33 54 44 93 103
107 161 10 41 15 49 23 37 15 -20 227 -52 400 -59 120 -5 155 -3 245 16 137
28 204 51 325 110 144 71 218 122 320 225 140 140 190 245 270 565 76 307 97
471 98 775 1 211 -2 248 -32 445 -44 298 -101 549 -176 778 -28 85 -33 114
-30 165 3 34 10 132 15 217 18 270 68 693 86 721 17 28 25 -8 28 -126 2 -72 7
-355 10 -630 8 -606 22 -818 67 -988 l10 -37 87 5 c281 18 495 53 702 115 74
23 136 43 138 45 2 1 -12 61 -31 131 -68 252 -129 558 -178 889 -17 116 -37
255 -46 310 -8 55 -15 174 -16 265 -2 138 0 165 12 165 11 0 16 -14 18 -44 4
-60 27 -192 63 -358 17 -76 60 -275 95 -443 113 -531 198 -860 222 -860 28 0
355 174 398 212 71 62 70 78 -13 265 -86 194 -123 299 -168 472 -73 283 -105
597 -86 838 11 132 101 795 142 1043 129 777 166 1438 104 1855 -22 152 -81
403 -131 565 -171 553 -434 930 -796 1142 -295 172 -809 320 -1247 358 -133
11 -396 11 -520 -1z m255 -354 c79 -13 115 -29 115 -49 0 -15 -27 -29 -40 -21
-4 2 -95 -4 -201 -15 -302 -31 -614 -118 -859 -238 -63 -32 -118 -58 -121 -60
-4 -2 -9 5 -13 14 -17 43 108 157 254 233 147 76 316 122 565 155 46 6 221 -5
300 -19z m-7176 -566 c56 -40 78 -90 141 -317 27 -101 54 -191 59 -200 5 -9
28 -75 51 -147 24 -71 52 -148 64 -170 l21 -40 3 40 c6 66 -17 170 -79 356
-70 211 -79 256 -54 265 26 10 84 -25 117 -71 41 -56 66 -117 89 -214 11 -46
33 -117 49 -158 17 -41 46 -127 65 -191 20 -64 42 -127 51 -140 14 -22 13 -26
-20 -70 -31 -43 -39 -48 -96 -59 -81 -15 -154 -59 -158 -95 -2 -19 2 -28 16
-32 17 -6 83 4 140 20 18 5 22 2 22 -17 0 -33 14 -52 35 -47 18 3 33 23 135
183 52 82 137 175 160 175 24 0 7 -81 -42 -204 -64 -161 -70 -215 -38 -341 19
-74 20 -94 11 -127 -11 -35 -74 -121 -144 -194 -56 -59 -109 -184 -78 -184 5
0 12 -12 16 -27 3 -16 38 -93 77 -173 39 -80 101 -216 139 -303 81 -186 95
-212 278 -475 184 -266 238 -336 353 -463 94 -104 96 -107 78 -124 -88 -79
-200 -415 -200 -598 0 -35 6 -87 14 -116 l14 -54 -27 33 c-161 202 -281 410
-502 871 -318 664 -347 729 -400 908 -54 180 -105 288 -163 345 -29 27 -44 50
-40 59 7 19 -39 54 -132 100 -94 47 -125 75 -186 165 -52 77 -99 185 -183 417
-68 191 -98 269 -180 464 -85 203 -101 261 -84 303 15 37 44 36 97 -2 62 -45
112 -120 194 -290 41 -85 84 -166 96 -180 21 -25 21 -25 22 -3 0 28 -85 273
-117 338 -14 27 -36 65 -49 85 -30 46 -97 259 -127 402 l-22 109 20 36 c27 49
40 51 75 13 38 -41 84 -137 148 -306 27 -72 76 -177 109 -235 33 -57 74 -131
91 -164 34 -69 74 -110 96 -102 13 5 14 11 2 45 -14 38 -14 39 15 49 28 11 30
10 50 -29 11 -22 22 -38 24 -36 8 8 -76 301 -139 483 -82 240 -88 264 -88 347
0 75 19 118 51 118 10 0 37 -14 60 -31z m7031 10 c0 -13 -68 -77 -180 -169
-107 -89 -305 -189 -440 -225 -173 -45 -371 -39 -482 16 -93 45 -73 74 59 83
311 22 524 70 771 175 190 81 215 94 230 114 14 19 42 23 42 6z m1185 -108
c169 -52 284 -121 396 -238 126 -132 201 -267 244 -437 56 -223 59 -476 6
-530 -19 -18 -19 -18 -30 2 -6 11 -18 64 -26 119 -25 153 -75 372 -102 443
-33 89 -86 184 -143 255 -101 127 -298 294 -407 345 -59 29 -74 40 -67 51 9
14 65 10 129 -10z m-2109 -535 c63 -16 106 -39 172 -88 44 -33 102 -103 102
-123 0 -3 -21 8 -46 26 -93 64 -249 136 -356 165 -60 16 -108 33 -108 38 0 12
173 -1 236 -18z m859 -208 l0 -173 -95 0 c-79 0 -95 -3 -98 -16 -2 -13 9 -17
56 -22 33 -4 81 -15 108 -24 47 -18 50 -21 67 -78 81 -267 237 -523 441 -728
105 -105 262 -201 371 -229 59 -14 63 -17 47 -26 -6 -5 31 -6 82 -4 84 4 100
2 149 -21 64 -29 114 -89 148 -177 16 -42 21 -77 21 -150 -2 -301 -151 -442
-453 -428 -116 6 -181 26 -251 77 -23 17 -50 31 -59 31 -10 0 -58 -46 -107
-102 -104 -120 -206 -218 -279 -271 -123 -89 -341 -169 -538 -197 -294 -41
-661 41 -897 202 -133 90 -296 299 -357 458 -115 298 -140 553 -86 876 41 243
103 439 258 806 25 59 41 110 36 113 -5 4 -9 16 -9 28 -1 13 -36 59 -90 117
-49 52 -85 97 -79 99 6 1 58 -20 117 -48 226 -107 490 -150 810 -131 267 16
423 52 592 138 52 27 95 49 95 50 0 1 0 -76 0 -170z m661 94 c34 -102 91 -211
172 -333 89 -132 161 -217 341 -407 158 -165 185 -200 175 -227 -10 -26 -68
-13 -133 32 -69 47 -232 208 -293 288 -130 173 -230 347 -267 470 -26 83 -53
233 -45 247 12 19 26 0 50 -70z m-474 -297 c94 -32 148 -66 233 -146 72 -68
133 -145 123 -154 -3 -3 -43 27 -89 66 -111 94 -203 154 -321 209 -54 25 -98
49 -98 53 0 12 73 -2 152 -28z m-3103 -1076 c54 -11 139 -74 111 -82 -138 -40
-229 -88 -289 -151 -28 -31 -54 -50 -57 -44 -4 5 -9 38 -11 72 -14 170 72 243
246 205z m151 -198 c0 -71 -26 -115 -88 -149 -67 -38 -191 -42 -236 -9 -16 12
-15 17 23 62 22 26 55 58 73 69 57 37 172 86 201 86 26 0 27 -1 27 -59z m208
8 c108 -49 162 -114 333 -402 175 -296 319 -462 461 -531 77 -38 261 -89 366
-101 34 -4 62 -10 62 -13 0 -4 -7 -16 -15 -26 -14 -19 -17 -19 -167 7 -84 15
-225 43 -313 62 -88 19 -225 46 -305 61 -80 14 -188 34 -240 44 -194 37 -384
46 -502 24 -54 -10 -227 167 -286 295 -21 45 -25 69 -26 155 -1 87 2 108 23
154 18 41 28 51 40 46 105 -45 201 -44 296 2 94 46 135 111 135 213 l0 59 38
-10 c20 -6 65 -23 100 -39z m-6088 -379 c561 -51 887 -182 1044 -419 58 -86
111 -199 131 -276 22 -85 20 -261 -5 -387 -26 -134 -27 -237 -1 -269 10 -13
58 -89 106 -168 48 -79 109 -169 134 -200 26 -31 115 -144 198 -251 175 -225
228 -279 488 -495 105 -87 192 -162 193 -167 9 -20 -29 -2 -156 78 -303 189
-392 264 -565 477 -294 362 -298 368 -359 492 l-58 120 0 -110 c0 -300 86
-800 183 -1065 76 -206 72 -199 162 -257 177 -114 311 -156 564 -179 158 -14
205 -24 190 -39 -13 -12 -314 -24 -381 -15 -90 13 -265 71 -335 111 -29 17
-53 27 -53 23 0 -17 212 -405 321 -586 134 -223 148 -249 235 -441 35 -76 93
-183 129 -237 64 -96 104 -172 105 -197 0 -6 4 -23 9 -37 l10 -25 68 29 c37
16 97 34 133 40 87 15 322 9 328 -7 2 -9 -9 -13 -36 -13 -132 0 -468 -87 -459
-119 3 -9 17 -56 31 -106 94 -317 67 -682 -71 -958 l-34 -68 28 7 c124 30 341
116 450 177 122 69 350 233 397 286 22 24 46 28 46 7 0 -37 -287 -289 -432
-379 -132 -83 -315 -147 -474 -166 -62 -7 -66 -9 -115 -64 -128 -144 -306
-233 -595 -298 -227 -50 -414 -34 -889 77 -104 24 -298 66 -430 94 -132 28
-327 75 -434 105 -106 31 -286 76 -400 101 -311 68 -543 126 -891 224 -173 49
-409 111 -525 139 -262 64 -582 158 -712 209 -198 80 -185 71 -227 156 -65
131 -59 245 15 330 41 46 125 95 169 98 14 1 86 -22 160 -49 275 -104 496
-159 755 -190 132 -16 245 -18 950 -18 878 0 869 -1 1275 66 223 37 360 65
630 130 113 28 270 66 349 85 170 40 276 72 426 126 196 70 240 88 267 106
l28 18 -47 75 c-25 41 -81 146 -123 234 -42 88 -130 250 -197 360 -256 426
-425 781 -512 1073 -61 207 -114 517 -129 757 -9 132 0 516 13 592 l7 42 -98
101 c-167 172 -307 275 -509 375 -201 98 -443 169 -623 181 -304 21 -579 -194
-659 -514 -9 -37 -21 -70 -27 -74 -6 -4 -34 -10 -62 -14 -74 -9 -151 16 -216
70 -51 41 -53 45 -50 87 9 133 57 330 114 468 74 178 235 361 385 439 174 90
373 118 663 92z m6235 -620 c66 -10 189 -29 272 -41 l153 -23 -108 -63 c-59
-35 -118 -66 -132 -70 -51 -13 -429 140 -510 208 l-25 21 115 -7 c63 -3 169
-15 235 -25z m-365 -46 c99 -65 215 -122 353 -174 l99 -37 -144 -85 c-79 -47
-210 -125 -293 -173 -253 -148 -719 -469 -1057 -727 -635 -486 -935 -656
-1288 -728 -91 -19 -126 -21 -265 -17 -265 9 -439 49 -642 147 -147 70 -246
133 -331 209 -35 31 -82 72 -104 92 l-40 35 46 91 c25 50 52 115 60 145 8 29
21 69 29 88 42 100 45 251 7 389 -60 214 -146 334 -312 433 -129 77 -246 95
-328 53 -17 -9 -34 -14 -37 -11 -10 10 85 47 144 56 71 12 156 -1 226 -33 61
-28 159 -101 202 -149 30 -34 153 -171 285 -319 l77 -86 12 -79 c6 -43 16
-146 22 -228 6 -88 15 -156 22 -165 7 -8 50 -32 96 -53 74 -35 87 -38 112 -28
15 7 31 19 34 28 19 46 27 86 38 179 l12 102 76 -33 c93 -40 252 -81 379 -98
124 -16 477 -15 605 1 380 48 634 139 975 351 125 78 361 248 375 270 3 5 -39
-18 -95 -50 -109 -65 -436 -231 -540 -275 -36 -15 -84 -36 -107 -46 -139 -63
-555 -150 -708 -149 -37 1 -44 6 -94 68 -101 125 -128 215 -111 376 13 130 25
173 55 192 22 14 30 14 99 -6 183 -51 410 -71 586 -51 197 23 355 87 708 288
250 143 385 204 537 243 113 29 129 27 225 -36z m1696 -49 c123 -46 234 -72
374 -87 l114 -13 -52 -43 -51 -43 -138 45 c-76 24 -194 59 -263 76 -69 17
-127 33 -129 35 -4 5 38 65 46 65 3 0 48 -16 99 -35z m-661 0 c94 -14 213 -34
265 -45 189 -39 537 -142 739 -221 l85 -32 -110 -37 c-144 -48 -270 -104 -477
-212 -94 -48 -177 -88 -185 -88 -8 0 -85 71 -171 158 -199 203 -271 252 -456
312 -38 12 -74 25 -78 27 -9 5 192 161 208 162 6 1 87 -10 180 -24z m-8159
-67 c3 -4 1 -30 -5 -60 -6 -29 -15 -89 -20 -133 -10 -97 -3 -114 71 -179 116
-102 244 -135 382 -99 83 22 101 41 122 136 9 37 20 65 25 62 4 -3 29 -44 55
-90 25 -47 50 -85 55 -85 15 0 10 -29 -19 -130 -39 -130 -156 -400 -210 -482
-67 -104 -85 -112 -197 -83 -102 27 -366 115 -421 141 -71 34 -190 128 -210
166 -16 32 -15 116 6 339 5 53 12 172 16 265 4 93 11 174 16 181 8 10 119 43
188 57 33 6 138 2 146 -6z m4662 -80 c-17 -34 -22 -61 -22 -123 -1 -74 1 -80
19 -80 22 0 43 34 76 128 32 88 101 123 147 74 24 -25 52 -87 52 -114 0 -10
-15 -25 -33 -34 -38 -18 -73 -67 -87 -121 -15 -54 -31 -246 -24 -288 19 -125
57 -218 114 -283 16 -19 30 -37 30 -41 0 -20 -340 5 -470 35 -135 31 -132 29
-152 112 -32 133 -17 267 52 462 46 128 62 156 136 234 66 70 78 77 147 80
l37 1 -22 -42z m3161 -84 c188 -64 241 -100 446 -311 l141 -144 -46 -29 c-42
-27 -57 -30 -151 -35 -111 -5 -120 -4 -266 52 -187 71 -316 191 -357 332 -26
87 -22 102 32 138 26 17 58 32 71 32 13 1 72 -15 130 -35z m-4714 -65 c75 -28
197 -111 239 -162 81 -101 139 -267 140 -409 1 -53 -2 -99 -6 -103 -21 -22
-277 217 -382 358 -32 42 -87 127 -122 189 l-65 113 38 17 c50 23 91 22 158
-3z m6183 -132 c-6 -108 -20 -141 -80 -190 -58 -47 -96 -65 -182 -87 -116 -29
-218 -34 -311 -15 -118 25 -119 26 -34 75 41 23 99 57 130 75 129 78 441 233
473 234 5 1 7 -41 4 -92z m215 12 c367 -184 618 -367 783 -573 321 -400 545
-908 663 -1506 58 -295 75 -445 75 -685 -1 -339 -39 -589 -144 -945 -64 -213
-156 -341 -334 -462 -90 -62 -270 -144 -381 -174 -90 -25 -115 -28 -260 -27
-109 1 -200 7 -285 21 -107 17 -128 18 -147 6 -21 -13 -21 -12 -12 22 6 19 21
64 35 100 15 40 29 106 35 167 9 90 7 111 -10 178 -11 42 -33 104 -50 138 -17
33 -31 63 -31 65 0 3 21 8 48 12 66 10 234 69 317 112 142 75 251 217 296 389
43 161 35 522 -16 718 -39 148 -127 271 -228 316 -72 33 -222 34 -282 2 -106
-56 -195 -181 -395 -558 -236 -445 -331 -558 -598 -715 -43 -25 -85 -43 -102
-42 -16 0 -121 28 -235 61 -113 34 -366 103 -563 155 -196 52 -404 112 -462
134 -58 22 -136 49 -173 61 -50 15 -86 35 -132 74 -93 77 -194 134 -535 303
-212 105 -317 163 -345 189 -63 60 -153 98 -234 97 -37 0 -85 -5 -106 -11 -22
-6 -105 -21 -185 -35 -119 -20 -196 -25 -422 -30 -153 -3 -300 -11 -327 -17
-95 -20 -123 -67 -82 -135 22 -35 73 -78 112 -93 22 -8 27 -17 31 -60 9 -88
74 -161 183 -206 47 -19 53 -24 40 -35 -33 -27 -7 -115 48 -161 50 -42 126
-69 267 -95 134 -25 156 -26 300 -19 265 13 217 32 398 -153 168 -171 203
-195 307 -212 66 -11 168 0 266 29 36 10 98 24 137 31 63 10 78 10 124 -6 50
-16 395 -162 555 -234 l73 -33 -103 -67 c-311 -203 -473 -393 -902 -1055 -158
-243 -338 -506 -413 -600 -234 -295 -480 -524 -685 -638 -125 -71 -405 -149
-630 -177 -141 -17 -317 -14 -462 9 -142 22 -285 52 -285 61 0 3 39 18 87 33
154 49 323 167 416 290 102 133 169 303 187 471 31 292 -23 1030 -106 1458
-42 217 -124 454 -266 768 -174 384 -308 610 -531 899 -70 89 -84 112 -65 107
230 -64 686 -106 1142 -106 263 0 579 41 830 106 268 70 625 242 916 442 253
174 878 682 1170 952 268 248 397 356 557 468 147 102 127 97 251 65 234 -60
490 -17 634 107 66 57 89 112 96 221 2 49 9 89 14 89 4 0 63 -28 131 -61z
m-10881 -50 c127 -26 158 -39 183 -78 35 -52 73 -170 80 -248 9 -97 -11 -344
-35 -437 -43 -162 -115 -273 -243 -374 l-64 -50 -104 39 c-107 41 -287 134
-410 214 -79 51 -90 70 -115 192 -12 59 -15 113 -11 228 8 246 48 324 217 419
47 26 193 67 320 91 95 17 117 17 182 4z m11477 -43 c10 -11 10 -29 0 -78 -6
-35 -13 -65 -15 -66 -1 -2 -16 6 -32 18 -30 22 -30 23 -17 61 28 78 42 92 64
65z m-10811 -147 c54 -6 129 -8 167 -5 l70 6 1 -107 c0 -131 18 -184 80 -249
26 -26 44 -54 44 -68 0 -31 -54 -137 -84 -165 -29 -28 -102 -43 -160 -35 -72
11 -70 7 -71 161 0 119 -4 147 -24 203 -40 109 -76 183 -115 234 -24 30 -32
46 -21 42 9 -3 60 -11 113 -17z m4638 -194 c31 -24 80 -59 110 -77 l55 -33 -6
-65 c-6 -68 -32 -180 -43 -192 -4 -4 -31 4 -60 17 -48 22 -52 27 -52 58 0 49
-27 201 -49 275 -11 34 -17 62 -14 62 2 0 29 -20 59 -45z m-3880 -518 c-19
-47 -95 -128 -155 -166 -61 -40 -190 -93 -216 -89 -43 6 -15 35 122 122 141
90 213 149 213 172 0 18 23 24 38 9 11 -10 11 -18 -2 -48z m296 -3 c21 -59 22
-112 4 -179 -32 -121 -76 -170 -226 -251 -181 -98 -212 -111 -335 -142 -234
-59 -339 -74 -527 -74 -165 0 -261 14 -510 72 -222 53 -435 128 -509 182 -53
38 -162 169 -206 247 -39 70 -37 70 52 0 148 -115 281 -181 530 -265 210 -70
298 -84 550 -91 231 -6 319 2 526 47 191 42 420 149 505 236 68 69 108 150
109 221 0 29 4 52 10 50 5 -2 17 -26 27 -53z m-1292 -223 c74 -16 194 -39 267
-52 73 -12 138 -26 144 -30 49 -30 -130 -40 -256 -14 -81 17 -315 103 -315
116 0 13 13 12 160 -20z m6340 -531 c65 -105 152 -220 242 -323 59 -67 67 -81
57 -98 -12 -24 -36 -19 -90 18 -84 56 -243 283 -300 426 -18 44 -50 201 -48
232 0 6 20 -30 43 -80 23 -49 67 -128 96 -175z m-8296 -6 c116 -29 221 -88
306 -172 68 -68 81 -87 110 -162 37 -97 40 -154 15 -265 -39 -166 -137 -253
-403 -359 -223 -89 -424 -131 -574 -120 l-88 7 -6 35 c-11 55 3 376 21 482 21
130 61 250 101 307 45 63 209 212 265 240 54 28 161 31 253 7z m-549 -128
c-128 -130 -187 -338 -198 -691 -7 -244 12 -405 88 -716 54 -220 90 -317 191
-519 90 -178 128 -235 253 -381 l45 -51 -35 7 c-18 3 -68 22 -109 41 -90 43
-192 142 -288 281 -110 162 -139 235 -184 466 -21 111 -58 285 -80 387 -82
362 -62 585 78 888 78 168 155 265 264 331 19 11 36 21 36 21 1 0 -27 -29 -61
-64z m13274 -396 c127 -65 193 -275 193 -620 0 -267 -39 -398 -152 -511 -67
-67 -214 -144 -355 -184 -49 -14 -92 -30 -96 -36 -3 -6 -33 18 -68 54 -34 35
-83 75 -109 90 -63 34 -149 44 -190 23 -30 -15 -32 -15 -82 19 -29 19 -57 35
-64 35 -41 1 -34 20 34 90 108 112 195 252 415 660 42 80 97 176 122 213 49
77 128 165 158 178 40 16 154 10 194 -11z m-3867 -256 c53 -24 165 -85 250
-135 84 -51 221 -127 305 -170 174 -90 261 -141 353 -209 81 -60 137 -87 150
-74 6 6 56 -13 140 -53 156 -75 186 -86 455 -158 116 -31 309 -84 430 -117
430 -119 433 -120 512 -114 l73 6 60 -59 c85 -83 130 -197 130 -327 0 -77 -38
-210 -75 -264 -48 -70 -129 -104 -182 -77 -15 8 -52 20 -81 26 -53 11 -170 66
-747 351 -393 195 -707 322 -865 351 -125 23 -185 23 -263 -2 -53 -17 -97 -23
-167 -23 -119 -1 -140 9 -287 140 -123 109 -212 173 -250 180 -15 3 -30 7 -35
10 -4 3 -90 7 -190 10 -367 10 -568 76 -580 189 -3 35 -35 32 267 24 167 -4
171 -4 220 22 61 31 75 65 23 55 -18 -3 -121 -10 -229 -15 -107 -5 -213 -15
-236 -21 -47 -14 -69 -6 -149 58 -57 45 -99 103 -108 150 -7 38 -2 39 89 17
87 -21 289 -19 473 6 163 21 202 33 183 52 -19 19 -134 20 -242 3 -148 -24
-301 -31 -384 -17 -144 24 -145 24 -163 7 -17 -15 -20 -14 -44 12 -35 36 -78
102 -78 117 0 7 8 17 18 21 9 4 172 11 362 14 310 6 360 9 490 33 241 43 232
43 372 -19z m-8346 -144 c19 -58 38 -125 41 -150 12 -107 -37 -159 -76 -81
-38 73 -49 216 -24 319 9 40 23 19 59 -88z m198 -375 c32 -54 69 -102 93 -121
l40 -30 -98 -34 c-101 -34 -179 -77 -237 -133 -49 -47 -109 -141 -128 -201
l-16 -52 -137 -49 c-108 -40 -152 -51 -212 -53 -69 -4 -78 -2 -106 22 -44 37
-75 117 -76 193 0 35 4 68 10 74 5 5 75 27 154 49 254 69 377 122 493 214 55
44 125 142 139 194 8 29 14 40 19 31 5 -8 32 -54 62 -104z m773 -236 c74 -11
80 -14 123 -59 41 -43 116 -168 106 -177 -2 -2 -68 21 -147 52 -124 49 -150
56 -189 51 -121 -16 -258 -122 -299 -230 -27 -74 -30 -198 -6 -271 23 -70 81
-170 110 -194 26 -19 194 -93 292 -127 l51 -18 -59 -68 c-42 -47 -77 -75 -117
-94 -105 -50 -145 -38 -362 109 -69 47 -203 136 -298 197 -95 62 -179 122
-187 134 -33 50 -67 171 -68 236 0 220 126 371 373 444 81 24 98 25 342 25
141 1 292 -4 335 -10z m10290 -204 c31 -14 88 -58 140 -108 104 -99 142 -129
154 -121 18 11 8 42 -36 109 -25 37 -43 70 -41 72 2 2 24 -1 50 -8 76 -19 163
-107 226 -229 90 -176 96 -294 25 -495 -19 -55 -35 -120 -35 -143 0 -55 -23
-103 -66 -142 -41 -35 -80 -38 -162 -11 l-53 17 26 24 c25 24 33 50 15 50 -5
0 -65 -19 -132 -42 -110 -38 -133 -43 -217 -43 l-93 0 -29 35 c-29 34 -61 94
-73 135 -5 19 1 22 53 33 67 14 140 59 183 112 97 122 115 396 37 553 -32 64
-95 143 -129 164 l-30 17 37 23 c48 29 85 29 150 -2z m-11884 -488 c30 -29 90
-78 133 -109 91 -64 164 -130 164 -147 0 -23 -30 -22 -87 3 -130 60 -186 116
-246 249 -14 31 -24 57 -22 57 2 0 28 -24 58 -53z m7636 -1018 c28 -500 5
-689 -109 -881 -85 -144 -259 -282 -420 -332 -221 -70 -407 -52 -610 61 -267
149 -367 337 -396 746 l-7 97 29 0 c79 0 318 22 390 35 89 16 269 71 379 115
177 71 300 137 445 241 52 37 135 93 185 124 l90 56 6 -33 c4 -18 12 -121 18
-229z"/>
<path d="M13902 12348 c-16 -16 -15 -47 2 -77 12 -22 9 -34 -30 -124 -53 -121
-104 -271 -104 -306 0 -67 78 -129 144 -115 57 12 59 21 15 80 -55 72 -49 85
36 82 l65 -3 55 130 c65 154 68 189 25 239 -17 18 -42 37 -56 40 -14 4 -44 20
-66 36 -44 32 -67 37 -86 18z"/>
<path d="M14827 11943 c-13 -13 -7 -47 17 -88 28 -47 32 -32 -44 -170 -21 -38
-54 -115 -75 -169 -42 -114 -41 -148 5 -199 25 -29 34 -32 83 -32 82 0 90 12
55 81 -40 80 -39 84 30 84 l59 0 66 130 c94 182 90 228 -25 286 -28 14 -68 39
-91 55 -39 28 -67 36 -80 22z"/>
<path d="M13707 11144 c-10 -10 11 -43 62 -97 l45 -49 -62 -122 c-73 -143 -77
-175 -33 -251 29 -50 101 -125 121 -125 17 0 11 23 -29 114 l-39 88 30 63 c19
43 31 86 35 134 3 39 8 71 10 71 2 0 24 -15 49 -34 81 -62 379 -202 504 -237
25 -7 49 -16 54 -20 18 -16 -7 -64 -66 -126 -76 -79 -129 -97 -303 -107 -66
-4 -128 -9 -137 -12 -29 -9 -8 -32 45 -52 153 -56 333 -22 449 85 83 77 108
125 108 203 0 93 -18 108 -175 150 -153 40 -273 87 -404 156 -116 62 -182 103
-227 146 -17 15 -33 25 -37 22z"/>
<path d="M15992 11060 c-80 -33 -165 -167 -178 -282 -12 -102 47 -178 162
-210 71 -19 161 39 183 119 17 62 -19 137 -81 169 -32 16 -101 18 -129 4 -41
-22 -16 33 44 98 44 46 87 44 138 -7 22 -21 39 -48 39 -59 0 -26 19 -39 31
-21 15 22 0 91 -28 127 -48 64 -117 87 -181 62z m66 -287 c11 -10 23 -27 26
-38 7 -26 -28 -85 -51 -86 -78 -5 -153 49 -121 88 40 49 110 66 146 36z"/>
<path d="M4907 9564 c-8 -8 35 -122 70 -186 56 -102 196 -203 321 -229 104
-21 277 4 270 40 -3 14 -24 17 -143 21 -136 6 -142 7 -218 43 -97 47 -175 123
-244 234 -27 46 -53 80 -56 77z"/>
<path d="M10297 6203 c-3 -2 6 -21 20 -41 41 -61 119 -221 153 -317 41 -118
69 -240 119 -520 23 -126 50 -283 62 -348 12 -69 28 -126 38 -139 l18 -21 109
28 c131 34 150 48 165 129 31 168 -105 812 -225 1071 -57 120 -103 144 -286
145 -58 0 -119 4 -137 9 -17 5 -34 7 -36 4z m308 -86 c50 -17 75 -63 139 -262
90 -278 156 -581 171 -781 9 -124 5 -132 -94 -161 -46 -13 -85 -22 -87 -20 -2
1 -19 95 -39 207 -105 594 -161 774 -309 990 -28 41 -54 79 -58 85 -7 12 204
-32 277 -58z"/>
<path d="M3127 6009 c-35 -26 -84 -131 -92 -194 -11 -86 18 -225 69 -332 25
-51 49 -93 54 -93 5 0 -1 44 -14 98 -31 125 -48 264 -40 323 5 39 35 138 61
202 10 23 -6 22 -38 -4z"/>
<path d="M5419 14009 c-11 -11 -18 -27 -15 -34 10 -28 77 -276 101 -380 15
-60 29 -118 31 -128 5 -15 -28 -34 -190 -112 -121 -59 -199 -103 -206 -116
-26 -48 32 -79 350 -183 l105 -35 7 -208 c6 -197 7 -208 28 -225 12 -10 26
-18 30 -18 25 0 57 51 109 176 32 77 66 152 75 167 l18 26 125 -44 c138 -50
154 -57 213 -99 55 -40 67 -26 40 47 -12 31 -43 89 -69 130 -27 41 -74 118
-106 173 l-56 98 47 110 c60 142 104 272 104 308 0 18 -8 33 -25 44 -24 15
-29 14 -167 -55 -79 -39 -148 -71 -154 -71 -6 0 -76 91 -155 201 -79 111 -154
212 -166 225 -27 29 -47 30 -74 3z m239 -390 c29 -41 52 -78 52 -81 0 -7 -79
-42 -84 -37 -4 6 -56 216 -56 230 0 14 18 -9 88 -112z m334 -159 c-21 -52 -42
-94 -47 -93 -4 0 -25 29 -47 62 l-39 61 83 38 c46 21 84 36 86 32 1 -3 -15
-48 -36 -100z m-160 -106 c31 -49 57 -96 57 -106 1 -9 -20 -59 -45 -111 l-46
-95 -56 22 -57 22 -11 100 c-6 54 -15 124 -18 154 l-8 55 54 27 c29 15 58 26
63 24 6 -1 36 -43 67 -92z m-257 -120 c8 -59 13 -110 11 -111 -6 -6 -271 94
-269 101 3 8 236 125 241 121 1 -1 9 -51 17 -111z m409 -141 c14 -27 45 -79
70 -118 24 -38 43 -71 41 -73 -1 -2 -48 20 -104 47 l-101 51 26 58 c14 31 28
63 31 70 8 18 11 16 37 -35z m-225 -118 c5 -6 -49 -124 -61 -131 -4 -3 -8 29
-8 72 l0 77 32 -7 c17 -3 34 -8 37 -11z"/>
<path d="M19046 12585 c-12 -32 -5 -181 13 -288 11 -60 21 -110 23 -112 3 -4
2 59 -5 290 -3 92 -17 144 -31 110z"/>
<path d="M19518 12373 c-76 -79 -166 -212 -128 -188 23 14 190 209 190 222 0
22 -14 15 -62 -34z"/>
<path d="M18590 12297 c47 -45 106 -98 130 -117 l45 -35 -33 42 c-48 61 -193
193 -211 193 -9 -1 20 -36 69 -83z"/>
<path d="M4440 12229 c-52 -11 -223 -44 -380 -73 -185 -35 -366 -77 -515 -120
-126 -36 -315 -87 -420 -115 -212 -56 -367 -107 -462 -153 -123 -60 -249 -185
-301 -298 -33 -70 -34 -179 -4 -293 15 -57 17 -79 9 -82 -133 -47 -196 -73
-377 -160 -218 -104 -292 -132 -545 -204 -77 -22 -161 -48 -187 -60 -91 -39
-154 -119 -173 -222 -7 -38 24 -282 55 -434 10 -49 57 -245 103 -435 47 -190
103 -421 126 -515 43 -176 242 -937 247 -944 1 -2 26 3 53 10 39 10 50 17 46
28 -21 69 -189 709 -241 926 -37 149 -96 385 -131 525 -36 140 -66 259 -67
264 0 5 44 20 99 33 213 50 378 99 590 175 836 302 1126 390 1600 488 234 48
293 63 520 135 94 29 230 72 303 95 170 53 275 100 298 135 17 25 18 26 25 8
4 -11 56 -209 115 -441 l107 -422 43 0 c44 0 54 10 54 53 0 23 -216 871 -250
981 -12 38 -18 72 -13 76 4 4 42 13 83 19 41 7 113 25 160 41 103 35 257 80
275 80 8 0 45 -97 95 -247 82 -246 138 -404 145 -411 7 -7 86 52 82 62 -2 6
-64 191 -137 411 -178 539 -205 614 -258 730 -109 239 -185 320 -337 359 -86
23 -312 20 -435 -5z m431 -104 c24 -9 61 -27 82 -41 74 -49 174 -237 261 -493
61 -178 61 -181 34 -181 -13 -1 -84 -26 -158 -56 -74 -30 -183 -73 -242 -94
l-107 -39 -31 58 c-61 113 -194 223 -318 261 -129 40 -417 20 -627 -43 -44
-13 -190 -58 -325 -99 -135 -42 -325 -94 -422 -118 -97 -23 -263 -68 -369
-101 -106 -32 -207 -61 -224 -65 l-31 -5 1 138 c0 125 2 142 24 187 33 65 117
154 199 210 98 67 244 117 611 211 179 46 387 99 461 119 74 19 227 52 340 71
113 20 270 49 350 65 176 34 415 41 491 15z m-458 -713 c125 -62 217 -180 263
-338 9 -32 18 -64 21 -69 2 -6 -13 -11 -34 -11 -21 0 -80 -19 -133 -42 -52
-22 -167 -62 -255 -87 -88 -26 -227 -68 -310 -95 -82 -26 -240 -67 -350 -90
-419 -87 -660 -154 -1066 -293 -234 -81 -355 -126 -739 -277 -438 -173 -535
-209 -541 -202 -9 9 -64 256 -80 354 -14 94 -9 143 25 212 33 68 62 83 261
141 279 80 345 105 575 215 137 66 275 125 350 149 293 93 536 163 695 200
163 38 344 91 635 186 187 60 333 85 490 82 120 -2 128 -3 193 -35z"/>
<path d="M4817 11955 l-37 -65 -83 40 -82 41 71 -68 71 -68 -33 -90 c-38 -101
-42 -133 -17 -142 25 -10 60 38 84 117 11 39 22 70 23 70 2 0 40 -25 86 -56
94 -62 125 -67 125 -19 0 30 -5 34 -183 142 -9 6 -8 22 8 73 34 112 22 122
-33 25z"/>
<path d="M2442 10805 c-33 -24 -54 -73 -55 -127 -1 -40 4 -53 28 -78 59 -61
189 -78 240 -30 65 61 50 186 -28 223 -52 25 -157 32 -185 12z m91 -27 c13
-13 37 -30 54 -39 40 -22 52 -69 28 -106 -16 -23 -22 -25 -71 -21 -77 7 -108
36 -101 98 4 32 13 51 32 67 32 28 29 28 58 1z"/>
<path d="M2031 10670 c-101 -37 -141 -81 -141 -159 0 -37 6 -49 38 -81 43 -43
99 -57 179 -45 86 13 143 102 128 200 -6 46 -33 77 -78 94 -39 15 -64 13 -126
-9z m126 -62 c21 -17 16 -92 -7 -121 -41 -52 -170 -44 -191 11 -12 30 3 96 24
109 17 11 107 21 137 16 14 -3 31 -9 37 -15z"/>
<path d="M1510 10504 c-80 -15 -116 -44 -55 -44 l24 0 -31 -50 c-61 -99 -44
-194 42 -238 35 -18 55 -22 93 -18 101 11 157 79 158 191 1 68 -23 113 -73
138 -38 19 -115 29 -158 21z m147 -88 c27 -31 30 -80 9 -130 -18 -44 -51 -66
-98 -66 -86 0 -118 48 -94 141 20 76 40 92 105 87 44 -4 59 -10 78 -32z"/>
<path d="M19473 11947 c-46 -5 -83 -13 -83 -18 0 -25 303 -25 333 0 9 7 14 17
11 22 -7 11 -153 9 -261 -4z"/>
<path d="M18602 11825 c-138 -18 -150 -22 -68 -24 85 -1 246 18 246 30 0 12
-52 10 -178 -6z"/>
<path d="M10461 11675 c-11 -15 -43 -72 -72 -128 -28 -56 -52 -103 -53 -104
-1 -1 -68 -10 -149 -21 -81 -11 -154 -26 -162 -32 -31 -25 -16 -53 76 -139
l92 -86 -28 -55 c-34 -68 -117 -261 -134 -313 -11 -34 -11 -41 5 -58 9 -10 25
-19 34 -19 17 0 197 114 279 176 24 19 47 34 50 34 3 0 37 -38 75 -85 39 -47
73 -85 78 -85 4 0 18 10 29 21 21 21 21 27 15 156 l-7 135 85 87 c95 95 173
193 182 229 5 17 0 30 -15 45 -19 20 -35 23 -149 27 l-127 5 -12 103 c-6 57
-17 110 -24 118 -18 21 -45 17 -68 -11z m19 -195 c0 -23 -4 -30 -20 -30 -23 0
-24 1 -8 35 15 34 28 32 28 -5z m4 -142 c3 -13 6 -67 6 -120 l0 -97 -56 -42
-55 -42 -39 44 c-22 24 -42 53 -46 63 -4 13 10 50 42 112 39 74 54 94 74 97
58 9 68 7 74 -15z m229 8 c-4 -8 -35 -45 -67 -82 -68 -77 -74 -74 -75 34 l-1
62 75 0 c63 0 75 -2 68 -14z m-435 -13 c-26 -56 -53 -103 -59 -103 -4 0 -26
21 -49 48 l-42 47 38 6 c58 9 116 10 112 2z m52 -324 c0 -8 -153 -119 -163
-119 -5 0 66 170 80 193 5 9 83 -61 83 -74z m184 -70 c4 -33 12 -72 17 -86 5
-14 8 -27 6 -29 -4 -4 -97 123 -97 132 0 9 44 43 56 44 7 0 14 -26 18 -61z"/>
<path d="M19445 11540 c-10 -16 198 -200 267 -236 34 -17 47 -11 32 14 -26 43
-289 238 -299 222z"/>
<path d="M19109 11468 c-4 -133 3 -274 15 -301 l14 -32 11 30 c9 21 10 71 4
180 -7 131 -10 150 -25 153 -14 3 -18 -4 -19 -30z"/>
<path d="M18740 11389 c-116 -138 -140 -170 -140 -186 0 -23 52 11 92 59 35
42 148 213 148 223 0 18 -26 -7 -100 -96z"/>
<path d="M21013 11195 c-48 -21 -130 -102 -143 -141 -7 -19 -10 -53 -8 -75 l3
-40 -120 -67 c-66 -37 -140 -81 -165 -98 -25 -17 -93 -56 -151 -86 -87 -46
-109 -54 -125 -45 -30 17 -124 25 -178 16 -66 -12 -150 -75 -166 -125 -18 -54
-7 -109 35 -169 45 -66 94 -101 164 -116 64 -13 103 -7 153 26 21 14 44 25 51
25 8 0 63 -25 123 -55 118 -60 343 -159 440 -194 52 -19 62 -27 73 -58 19 -52
79 -107 134 -122 58 -17 101 -9 158 28 59 37 82 84 82 168 0 53 -5 72 -30 111
-37 61 -84 92 -137 92 -97 0 -170 -45 -203 -125 -10 -25 -21 -45 -25 -45 -3 0
-28 9 -55 21 -26 12 -102 40 -168 64 -96 34 -356 152 -373 169 -2 2 2 31 9 65
11 58 7 98 -16 153 -6 14 26 33 187 114 106 53 223 118 259 145 37 27 71 49
76 49 5 0 20 -12 34 -26 31 -33 106 -72 157 -80 76 -12 158 53 187 148 22 75
19 126 -10 173 -14 22 -28 48 -31 57 -17 47 -151 74 -221 43z m103 -69 c71
-23 99 -55 99 -115 0 -61 -30 -126 -70 -151 -26 -16 -38 -18 -67 -10 -49 14
-98 49 -125 89 -27 39 -29 71 -9 110 19 36 94 104 109 98 7 -2 35 -12 63 -21z
m-848 -537 c15 -18 32 -41 39 -53 27 -46 8 -151 -34 -198 -18 -20 -94 -25
-135 -9 -51 19 -118 106 -118 153 0 41 62 105 119 122 74 23 99 20 129 -15z
m986 -396 c48 -62 61 -107 47 -160 -31 -113 -172 -127 -226 -23 -36 69 0 167
75 207 24 13 49 23 55 23 7 0 29 -21 49 -47z"/>
<path d="M19422 9427 c-68 -21 -97 -95 -156 -390 -25 -122 -61 -289 -81 -372
-20 -82 -56 -233 -80 -335 -25 -102 -60 -273 -79 -380 -19 -107 -64 -307 -100
-445 -97 -371 -105 -456 -54 -563 l25 -51 -41 -5 c-23 -3 -111 -10 -196 -16
-85 -6 -258 -24 -385 -40 -126 -16 -318 -38 -425 -50 -183 -20 -697 -101 -868
-136 -84 -17 -106 -26 -140 -58 -46 -41 -54 -72 -64 -250 -11 -199 -6 -226 77
-486 69 -215 127 -422 171 -612 19 -84 43 -182 54 -218 10 -36 42 -168 70
-295 45 -199 152 -562 196 -660 7 -16 27 -68 45 -115 56 -147 138 -207 362
-260 45 -11 109 -20 142 -20 71 0 184 23 223 44 15 9 115 52 222 97 240 100
600 253 820 349 91 40 262 112 380 160 305 124 546 239 786 375 241 136 333
197 404 267 52 51 112 156 124 218 15 70 10 67 104 75 94 8 105 13 129 59 24
45 118 310 164 461 60 194 184 550 251 720 171 429 264 694 433 1235 97 310
136 528 116 655 -13 84 -22 101 -113 216 -112 141 -152 167 -398 258 -456 169
-995 342 -1270 406 -276 65 -782 175 -800 174 -8 -1 -30 -6 -48 -12z m240 -72
c103 -33 514 -147 664 -184 238 -60 1259 -398 1378 -457 98 -48 113 -67 121
-159 11 -110 0 -234 -30 -345 -24 -89 -77 -258 -229 -730 -35 -107 -133 -370
-219 -585 -144 -359 -220 -582 -353 -1028 -26 -88 -94 -395 -94 -426 0 -11
-13 -35 -28 -52 l-29 -32 -74 56 c-41 30 -139 94 -219 141 -79 48 -149 91
-154 96 -6 6 -2 18 12 33 33 35 28 61 -20 100 -73 58 -268 187 -294 193 -26 7
-54 -10 -54 -32 0 -33 -39 -5 -177 129 -82 78 -182 171 -223 207 -41 35 -121
107 -177 158 l-103 94 20 25 c33 42 25 63 -47 135 -126 123 -184 151 -216 106
-16 -23 -17 -23 -117 79 -82 83 -100 107 -100 132 0 45 37 257 59 336 63 225
112 440 136 585 26 164 77 406 159 760 24 102 58 261 75 354 34 175 62 279 85
308 33 44 115 45 248 3z m2322 -905 c18 -91 -6 -273 -63 -470 -118 -414 -282
-901 -440 -1302 -122 -311 -269 -724 -297 -833 -18 -73 -128 -402 -156 -467
-17 -40 -26 -49 -57 -58 -76 -21 -92 -9 -56 40 13 18 29 58 36 89 21 106 81
316 144 511 35 107 89 276 120 375 31 99 108 308 170 465 198 499 215 549 299
865 24 94 58 213 75 266 16 53 41 148 55 211 14 64 33 134 40 156 16 45 37
177 31 195 -2 7 -6 32 -9 57 l-6 45 54 -56 c32 -35 56 -69 60 -89z m-2815
-1829 c141 -136 299 -286 351 -331 52 -46 158 -144 235 -219 77 -75 187 -173
243 -216 274 -211 346 -262 495 -352 125 -75 300 -191 346 -229 2 -2 -10 -34
-27 -72 -16 -37 -36 -94 -43 -126 -13 -55 -17 -60 -79 -101 -36 -24 -114 -70
-175 -102 -354 -192 -424 -229 -541 -284 -172 -82 -348 -159 -524 -229 -80
-32 -271 -113 -425 -180 -154 -67 -381 -164 -505 -215 -124 -51 -251 -104
-282 -118 -118 -52 -303 -91 -381 -81 l-46 7 5 86 c5 98 -10 85 -22 -18 -7
-62 -10 -66 -38 -55 -13 5 -14 20 -9 100 3 52 4 94 1 94 -3 0 -13 -40 -23 -90
-10 -49 -22 -90 -26 -90 -5 0 -37 11 -71 25 -73 30 -109 61 -149 131 -50 88
-193 538 -248 779 -109 483 -203 837 -303 1135 -76 227 -106 346 -115 459 -5
74 -4 78 30 137 41 69 49 77 97 93 69 23 681 121 940 151 252 28 365 43 702
90 81 11 180 31 220 44 40 13 81 24 92 25 11 1 116 -94 275 -248z m80 77 c91
-83 98 -92 82 -117 -6 -10 -33 11 -106 81 -61 59 -96 99 -91 106 4 7 11 12 15
12 5 0 49 -37 100 -82z m915 -816 c45 -32 109 -77 143 -100 73 -50 80 -59 60
-80 -22 -21 -32 -16 -191 108 -104 80 -133 107 -124 117 17 20 26 17 112 -45z"/>
<path d="M19532 9195 c-37 -31 -44 -49 -83 -215 -52 -223 -108 -449 -139 -555
-15 -55 -54 -197 -85 -315 -31 -118 -67 -252 -81 -298 -13 -45 -35 -144 -49
-220 -14 -75 -36 -193 -50 -262 -40 -212 -41 -227 -8 -287 30 -56 404 -426
597 -590 55 -48 144 -126 196 -173 153 -139 232 -199 460 -351 228 -152 427
-259 481 -259 41 0 93 35 112 75 8 17 20 58 27 90 31 152 96 379 165 580 42
121 99 306 125 410 50 196 87 303 208 605 114 287 157 422 223 710 63 270 70
318 54 356 -22 53 -35 59 -490 224 -88 32 -173 63 -190 70 -49 20 -592 209
-690 240 -127 40 -298 84 -485 125 -89 19 -174 42 -190 50 -42 22 -74 19 -108
-10z m173 -40 c50 -15 205 -60 345 -100 140 -41 300 -90 355 -111 55 -20 163
-58 240 -84 77 -27 196 -69 265 -93 69 -24 249 -88 400 -141 151 -53 288 -102
303 -108 58 -23 58 -77 -3 -283 -22 -71 -49 -168 -60 -215 -36 -142 -107 -350
-186 -542 -145 -352 -180 -451 -225 -638 -16 -68 -68 -239 -115 -380 -47 -140
-98 -311 -115 -380 -16 -69 -39 -165 -51 -215 -12 -49 -31 -100 -42 -112 -26
-30 -73 -30 -118 1 -19 13 -68 43 -109 66 -124 73 -479 318 -569 393 -47 39
-128 110 -180 157 -53 47 -142 124 -199 172 -152 129 -495 443 -536 490 -43
51 -44 74 -9 235 14 65 38 188 54 274 16 85 47 222 70 305 22 82 56 214 76
294 19 80 61 251 94 380 32 129 73 314 90 410 17 96 33 185 35 198 6 26 63 64
85 57 8 -2 56 -16 105 -30z"/>
<path d="M20472 9084 c-24 -17 -29 -53 -10 -72 18 -18 75 -15 82 4 11 30 6 53
-16 68 -12 9 -25 16 -28 16 -3 0 -16 -7 -28 -16z"/>
<path d="M20596 9011 c-3 -5 1 -15 10 -22 13 -10 17 -10 24 1 5 8 6 18 4 22
-7 11 -31 10 -38 -1z"/>
<path d="M18790 6741 c0 -5 15 -20 33 -33 34 -26 102 -96 135 -137 18 -24 21
-24 66 -11 26 7 45 16 44 19 -2 3 -42 43 -90 89 -85 81 -87 82 -137 82 -28 0
-51 -4 -51 -9z"/>
<path d="M18660 6733 c-67 -7 -67 -10 -6 -72 l57 -57 59 19 59 20 -42 48 c-43
50 -47 51 -127 42z"/>
<path d="M18510 6715 c-8 -2 -32 -6 -53 -10 -39 -6 -40 -13 -5 -57 12 -15 18
-15 81 1 l68 18 -21 26 c-20 25 -33 29 -70 22z"/>
<path d="M18285 6679 c-27 -5 -65 -11 -83 -15 l-33 -5 29 -37 c16 -20 39 -55
52 -77 13 -22 25 -42 26 -44 2 -2 19 4 39 13 19 9 58 20 85 23 28 3 53 10 56
14 2 5 -15 38 -38 73 -46 71 -46 70 -133 55z"/>
<path d="M18075 6649 c-33 -5 -79 -11 -103 -14 l-42 -6 24 -32 c13 -18 52 -84
86 -147 35 -63 64 -116 64 -117 1 -1 18 1 37 6 19 5 60 14 92 21 l58 12 -72
136 c-40 75 -75 140 -78 143 -3 3 -33 2 -66 -2z"/>
<path d="M17865 6623 c-168 -21 -224 -74 -188 -178 8 -25 17 -45 19 -45 3 0
53 15 112 34 59 19 119 37 133 40 l27 6 -32 75 c-17 41 -33 74 -36 73 -3 0
-18 -3 -35 -5z m-96 -138 c0 -5 -6 -1 -14 9 -8 11 -15 27 -15 35 1 17 29 -26
29 -44z"/>
<path d="M18572 6600 c-34 -4 -65 -9 -68 -12 -2 -3 17 -40 43 -82 39 -62 52
-76 68 -72 67 16 145 41 145 47 0 9 -111 129 -118 128 -4 -1 -35 -5 -70 -9z"/>
<path d="M18811 6579 c-30 -5 -56 -11 -58 -12 -1 -2 33 -38 76 -81 l78 -78 44
13 c24 7 46 14 48 16 2 1 -11 20 -30 41 -19 22 -47 55 -62 76 -15 20 -31 35
-35 35 -4 -1 -31 -5 -61 -10z"/>
<path d="M19066 6524 c-22 -8 -42 -16 -45 -19 -10 -11 113 -125 134 -124 11 0
38 8 59 18 l39 17 -69 62 c-38 34 -71 62 -74 61 -3 0 -23 -7 -44 -15z"/>
<path d="M18410 6478 c-122 -17 -117 -5 -48 -116 33 -53 64 -100 67 -104 4 -5
25 -1 46 6 22 8 56 17 75 21 67 11 67 15 9 113 -32 53 -60 91 -69 90 -8 0 -44
-5 -80 -10z"/>
<path d="M18713 6407 l-81 -32 54 -82 c29 -46 57 -83 61 -82 5 0 48 19 96 42
l89 42 -69 72 -68 72 -82 -32z"/>
<path d="M17925 6400 c-38 -11 -100 -24 -137 -31 -38 -7 -68 -17 -68 -22 0
-11 117 -248 128 -259 9 -9 272 72 272 84 0 9 -119 249 -123 247 -1 0 -33 -9
-72 -19z m-44 -141 c31 -62 33 -103 5 -80 -24 20 -59 141 -41 141 3 0 19 -27
36 -61z"/>
<path d="M18985 6386 c-22 -7 -39 -16 -38 -19 2 -4 30 -41 64 -82 l61 -74 52
19 c28 11 53 20 56 20 2 0 -29 34 -70 75 -41 41 -77 75 -80 74 -3 -1 -23 -7
-45 -13z"/>
<path d="M19223 6358 l-52 -20 82 -78 82 -77 42 20 c24 12 43 24 43 27 0 9
-131 150 -138 149 -4 -1 -30 -10 -59 -21z"/>
<path d="M16891 6325 c-3 -49 166 -644 264 -935 67 -199 170 -540 199 -660 43
-176 103 -395 114 -416 5 -10 22 -50 36 -89 14 -38 36 -88 49 -110 26 -46 99
-105 130 -105 18 0 12 9 -34 50 -66 58 -93 111 -144 290 -20 69 -65 214 -101
322 -35 109 -76 255 -90 325 -14 71 -32 155 -40 188 -38 148 -382 1172 -383
1140z"/>
<path d="M18225 6298 c-44 -11 -81 -21 -83 -23 -2 -2 24 -60 59 -128 l63 -125
71 24 c38 13 82 26 97 29 l26 5 -68 117 c-37 65 -72 118 -76 119 -5 1 -45 -7
-89 -18z"/>
<path d="M18585 6243 c-28 -12 -57 -23 -65 -23 -8 0 -25 -6 -37 -13 -22 -12
-22 -13 39 -105 33 -50 67 -92 75 -92 7 0 29 6 48 14 19 8 55 18 80 21 25 4
45 10 45 13 0 3 -11 19 -24 36 -12 17 -43 63 -67 102 l-44 70 -50 -23z"/>
<path d="M18862 6210 l-93 -46 65 -86 c36 -48 70 -89 76 -93 6 -4 51 9 99 29
49 20 94 36 100 36 18 0 13 15 -15 41 -14 13 -51 57 -81 97 -31 39 -56 71 -57
70 0 -1 -43 -22 -94 -48z"/>
<path d="M19154 6197 l-51 -22 76 -87 c41 -49 77 -88 80 -88 4 0 32 15 64 34
l59 33 -84 76 c-45 43 -85 76 -88 76 -3 -1 -28 -11 -56 -22z"/>
<path d="M19420 6172 c-19 -9 -37 -18 -39 -19 -6 -4 44 -56 111 -114 l57 -50
33 17 c18 9 35 18 37 21 5 4 -150 163 -159 162 -3 0 -21 -8 -40 -17z"/>
<path d="M18068 6090 c-36 -15 -92 -36 -122 -46 -31 -10 -56 -21 -56 -25 0 -4
42 -94 94 -201 52 -106 127 -264 167 -351 39 -87 76 -160 80 -163 5 -3 37 8
71 25 35 16 89 37 120 46 36 10 58 22 61 33 2 9 -36 96 -85 192 -48 96 -124
251 -168 345 -44 93 -83 171 -87 172 -5 1 -38 -11 -75 -27z"/>
<path d="M18385 6015 c-44 -19 -84 -35 -88 -37 -5 -2 12 -48 37 -102 38 -81
49 -97 63 -91 15 5 179 52 205 58 10 3 -114 200 -127 203 -5 1 -46 -13 -90
-31z"/>
<path d="M19360 5993 c-36 -20 -67 -37 -69 -39 -2 -2 27 -44 63 -93 l67 -90
85 42 c46 23 84 44 84 47 0 3 -37 42 -82 87 l-83 82 -65 -36z"/>
<path d="M18756 6005 c-16 -12 -79 -38 -123 -51 -8 -2 9 -38 43 -97 l55 -94
62 24 c100 39 137 56 137 62 0 13 -133 171 -143 171 -7 0 -21 -7 -31 -15z"/>
<path d="M19053 5974 c-49 -25 -90 -47 -91 -49 -6 -5 101 -155 110 -155 4 0
33 12 65 26 32 14 77 34 101 45 l43 19 -61 80 c-33 44 -65 80 -70 80 -5 0 -49
-21 -97 -46z"/>
<path d="M19617 5979 l-38 -20 40 -47 c21 -26 53 -60 69 -76 l30 -28 47 18 46
17 -43 41 c-24 22 -59 58 -78 78 l-35 37 -38 -20z"/>
<path d="M17500 5964 c-116 -14 -176 -27 -211 -44 -34 -18 -39 -25 -39 -54 0
-19 7 -56 15 -82 8 -27 30 -108 49 -180 19 -72 49 -167 66 -212 52 -136 108
-161 276 -124 114 25 207 71 235 115 35 56 23 99 -95 338 -58 119 -113 222
-121 229 -16 13 -116 21 -175 14z m256 -264 c60 -125 104 -228 104 -245 0 -43
-22 -69 -80 -94 -60 -26 -209 -60 -261 -61 -69 0 -68 -2 -191 359 -62 182 -67
206 -54 219 26 26 124 41 255 39 l124 -2 103 -215z"/>
<path d="M19570 5794 c-25 -20 -58 -43 -75 -51 -16 -9 -32 -17 -33 -19 -2 -1
24 -36 58 -76 l61 -74 92 44 c51 24 94 45 96 47 4 5 -140 165 -148 165 -3 0
-26 -16 -51 -36z"/>
<path d="M18596 5797 c-16 -12 -63 -33 -105 -48 -42 -15 -76 -31 -76 -35 0 -8
92 -193 100 -202 2 -2 227 78 233 83 3 2 -103 194 -122 222 -1 1 -14 -8 -30
-20z"/>
<path d="M19250 5789 c-25 -16 -66 -37 -92 -47 -27 -9 -48 -20 -48 -25 0 -13
131 -178 139 -175 22 12 160 77 179 84 22 9 21 12 -48 102 -39 50 -74 92 -78
91 -4 0 -27 -14 -52 -30z"/>
<path d="M19791 5793 l-43 -26 94 -94 95 -95 35 24 c20 13 44 28 54 35 18 12
18 13 -7 35 -59 52 -177 148 -180 147 -2 -1 -24 -12 -48 -26z"/>
<path d="M18857 5762 l-98 -47 57 -97 57 -97 46 23 c25 13 76 33 114 45 37 13
67 25 67 27 0 4 -141 194 -144 194 0 0 -45 -22 -99 -48z"/>
<path d="M19707 5588 c-48 -29 -87 -55 -87 -58 0 -4 48 -57 106 -118 l106
-112 42 23 c22 13 66 40 97 58 l56 35 -112 112 c-61 62 -113 112 -116 112 -3
0 -44 -24 -92 -52z"/>
<path d="M20021 5584 l-54 -36 85 -85 85 -85 62 40 62 39 -87 79 c-47 43 -89
80 -93 81 -3 1 -30 -14 -60 -33z"/>
<path d="M19380 5554 c-47 -29 -89 -55 -94 -57 -5 -2 8 -25 28 -51 20 -26 48
-68 62 -92 l26 -44 32 19 c18 11 71 35 118 53 l86 34 -80 94 c-44 52 -83 96
-87 97 -3 0 -44 -23 -91 -53z"/>
<path d="M19045 5553 c-33 -19 -77 -42 -97 -50 -21 -8 -38 -19 -38 -25 0 -9
92 -150 117 -180 13 -15 23 -12 116 31 56 27 110 51 120 54 16 6 11 17 -39 79
-31 40 -66 85 -77 101 -12 15 -26 27 -31 26 -6 0 -38 -17 -71 -36z"/>
<path d="M18705 5539 c-27 -16 -76 -39 -107 -50 -32 -12 -58 -24 -58 -28 2
-14 107 -186 114 -186 17 1 235 90 236 97 0 11 -122 198 -129 197 -3 -1 -28
-14 -56 -30z"/>
<path d="M20228 5381 l-58 -37 70 -69 c70 -69 71 -70 98 -55 15 9 33 28 40 43
12 24 11 33 -8 72 -20 40 -63 86 -79 84 -3 0 -32 -17 -63 -38z"/>
<path d="M19645 5380 c-3 -5 -51 -33 -105 -62 -55 -29 -100 -57 -100 -62 0
-16 168 -259 217 -314 l48 -53 145 71 c80 40 147 74 149 76 6 6 -156 178 -253
267 -52 48 -97 83 -101 77z"/>
<path d="M19968 5320 l-87 -58 78 -74 c42 -40 84 -83 93 -96 l15 -22 91 52
c51 29 92 57 92 61 0 10 -182 197 -190 196 -3 0 -44 -27 -92 -59z"/>
<path d="M19266 5341 c-9 -10 -55 -40 -101 -66 -47 -26 -85 -50 -85 -52 0 -3
30 -58 66 -123 l67 -119 121 61 c67 33 122 61 124 63 1 1 -24 44 -56 96 -32
52 -67 109 -78 127 -21 37 -34 40 -58 13z"/>
<path d="M18793 5280 l-112 -56 56 -84 c30 -47 63 -103 73 -126 l18 -41 68 33
c37 18 96 41 131 50 l63 17 -22 36 c-50 85 -150 231 -156 229 -4 -1 -57 -27
-119 -58z"/>
<path d="M18325 5281 c-66 -30 -67 -36 -24 -128 38 -82 38 -83 66 -72 41 15
113 50 113 55 0 2 -12 21 -28 43 -15 21 -36 57 -46 79 -21 47 -26 49 -81 23z
m56 -72 c37 -26 39 -52 4 -43 -21 5 -25 3 -25 -15 0 -12 -4 -21 -10 -21 -15 0
-30 35 -30 69 0 37 19 40 61 10z"/>
<path d="M20415 5065 c-115 -51 -291 -131 -390 -178 -99 -46 -256 -119 -350
-162 -93 -43 -251 -116 -350 -163 -99 -46 -259 -122 -355 -167 -96 -46 -202
-98 -236 -117 -33 -19 -96 -46 -140 -60 -43 -15 -166 -65 -272 -112 -200 -89
-315 -128 -416 -143 -103 -14 -78 -43 37 -43 87 0 196 40 436 162 118 59 223
108 233 108 22 0 408 174 823 370 165 78 374 175 465 217 245 111 771 384 735
382 -5 -1 -104 -43 -220 -94z"/>
<path d="M18623 5097 c-24 -11 -43 -23 -43 -26 0 -4 24 -46 53 -96 58 -97 70
-105 131 -85 l34 11 -37 72 c-41 79 -83 147 -91 146 -3 0 -24 -10 -47 -22z
m82 -78 c11 -16 -4 -59 -20 -59 -8 0 -15 9 -15 20 0 11 -4 20 -8 20 -5 0 -17
7 -28 15 -18 13 -16 14 23 15 23 0 45 -5 48 -11z"/>
<path d="M18479 5048 c-19 -12 -50 -26 -70 -32 l-37 -11 52 -102 51 -102 70
31 c39 17 71 32 73 33 4 3 -42 96 -80 162 l-24 42 -35 -21z m7 -92 c-5 -20 0
-25 35 -39 23 -9 38 -21 34 -27 -8 -13 -28 -13 -76 2 -45 13 -49 31 -17 65 27
29 32 29 24 -1z"/>
<path d="M19436 5044 c-21 -15 -74 -44 -117 -66 -44 -21 -79 -42 -78 -46 0 -4
24 -45 52 -92 39 -63 57 -85 72 -83 17 1 263 99 273 108 2 2 -26 39 -62 83
-35 45 -70 90 -76 101 -14 27 -17 26 -64 -5z"/>
<path d="M19040 5015 c-25 -14 -75 -41 -112 -60 -38 -19 -68 -38 -68 -42 0 -3
10 -20 23 -37 13 -17 47 -69 75 -116 29 -47 63 -98 78 -114 l25 -28 67 27 c37
16 88 39 114 52 l48 23 -38 63 c-21 34 -63 106 -92 159 -30 54 -60 98 -65 98
-6 0 -30 -11 -55 -25z"/>
<path d="M18575 4763 c-33 -15 -61 -28 -63 -29 -2 -1 15 -32 38 -68 46 -72 97
-122 136 -132 30 -8 72 9 81 32 9 25 -92 224 -114 224 -10 0 -45 -12 -78 -27z
m101 -129 c-8 -22 -33 -16 -67 14 -36 32 -33 60 4 41 17 -10 23 -9 32 5 9 14
12 12 23 -15 7 -17 11 -38 8 -45z"/>
<path d="M6042 8418 c-51 -69 -87 -97 -184 -148 -70 -37 -72 -39 -89 -96 -10
-32 -17 -60 -15 -61 6 -7 153 61 206 94 56 36 144 115 161 144 6 12 1 34 -14
71 l-22 54 -43 -58z"/>
<path d="M5635 7950 l-39 -39 43 -125 c47 -141 85 -311 103 -463 22 -192 -10
-248 -181 -316 -158 -63 -618 -176 -906 -222 -154 -25 -596 -116 -740 -153
l-70 -18 70 -38 70 -37 295 60 c162 34 356 70 430 82 152 24 274 50 533 115
407 102 523 157 582 278 46 95 44 212 -10 478 -23 113 -120 423 -135 433 -4 2
-24 -14 -45 -35z"/>
<path d="M15775 4722 c-50 -27 -50 -27 -56 -87 -4 -33 -8 -94 -8 -135 l-2 -75
-75 -47 c-60 -38 -74 -52 -74 -73 0 -32 31 -51 98 -60 l52 -7 0 -78 c0 -117
19 -282 36 -307 30 -47 70 -19 139 97 22 36 58 95 82 133 l43 67 97 -49 c54
-27 115 -63 137 -80 21 -17 42 -31 47 -31 36 0 7 92 -76 245 -36 66 -64 128
-61 137 2 9 36 66 76 127 57 88 71 116 66 136 -4 15 -16 27 -30 31 -24 6 -120
-20 -215 -58 l-53 -21 -75 81 c-41 45 -80 82 -86 82 -7 0 -34 -13 -62 -28z
m95 -132 l41 -49 -50 -26 -51 -25 0 80 c0 46 4 79 9 76 5 -4 28 -28 51 -56z
m251 -82 c-25 -41 -37 -45 -51 -19 -9 18 -7 22 12 30 13 4 30 11 38 14 8 3 17
6 18 6 2 1 -5 -14 -17 -31z m-113 -98 l25 -45 -38 -58 c-21 -31 -40 -57 -43
-57 -3 0 -36 10 -74 22 l-68 22 0 46 0 46 73 36 c39 21 78 36 86 35 8 -1 25
-22 39 -47z m116 -205 c20 -36 36 -68 36 -71 0 -3 -19 7 -42 21 -24 14 -50 30
-58 35 -13 8 -13 13 4 44 11 20 20 36 22 36 1 0 18 -29 38 -65z m-217 -18 c6
-6 -7 -30 -58 -111 l-39 -61 0 102 0 102 46 -14 c25 -7 48 -16 51 -18z"/>
<path d="M12880 4419 c0 -6 -7 -9 -15 -5 -12 4 -13 2 -4 -12 8 -13 -1 -51 -40
-167 -45 -136 -72 -246 -148 -605 -13 -63 -42 -228 -63 -367 -22 -139 -51
-292 -64 -340 -14 -48 -46 -169 -71 -268 -26 -99 -62 -228 -81 -286 -38 -117
-84 -332 -84 -389 0 -22 7 -43 18 -53 29 -27 418 -201 602 -270 96 -36 258
-88 360 -117 540 -151 831 -255 1210 -435 234 -111 413 -185 448 -185 90 0
141 182 212 750 33 269 58 423 96 605 99 475 138 812 114 997 -8 63 -19 110
-29 122 -22 25 -193 110 -266 131 -204 59 -454 165 -690 294 -71 39 -165 84
-210 100 -44 16 -141 55 -215 86 -131 55 -253 102 -430 166 -47 17 -182 78
-300 134 -118 57 -230 108 -249 114 -44 14 -101 14 -101 0z m265 -176 c191
-107 320 -168 472 -222 62 -22 126 -47 143 -56 30 -16 148 -64 363 -150 59
-24 165 -75 235 -113 236 -129 386 -192 697 -291 54 -18 244 -102 264 -117 2
-2 -7 -85 -19 -186 -21 -179 -47 -327 -135 -778 -58 -295 -69 -364 -100 -620
-30 -248 -56 -415 -87 -550 -17 -80 -23 -92 -32 -76 -44 78 -178 265 -285 400
-187 236 -229 295 -326 456 -49 80 -147 233 -220 340 -182 268 -244 372 -226
378 8 2 98 47 200 99 259 133 629 309 801 382 164 70 282 131 287 147 6 18
-35 24 -89 14 -45 -9 -106 -34 -408 -168 -69 -30 -249 -119 -401 -198 -151
-78 -312 -160 -357 -183 l-82 -41 -34 52 c-106 167 -303 533 -498 923 -149
299 -206 399 -327 569 -38 55 -68 103 -65 107 2 5 19 0 37 -10 18 -10 104 -59
192 -108z m-152 -50 c88 -151 143 -259 233 -461 149 -331 315 -657 472 -925
41 -70 73 -129 71 -131 -2 -2 -78 -43 -169 -91 -91 -49 -331 -181 -535 -293
-203 -113 -424 -232 -490 -264 -66 -33 -109 -56 -95 -53 86 24 310 130 788
371 l542 275 38 -61 c20 -34 114 -177 208 -318 94 -141 204 -312 245 -380 67
-111 133 -201 387 -525 96 -123 215 -288 210 -292 -5 -5 -172 67 -354 153
-364 173 -637 272 -1085 397 -364 101 -570 169 -838 279 -58 24 -134 52 -169
61 -48 14 -61 21 -58 34 3 9 17 72 31 141 14 69 43 179 65 245 55 170 176 641
194 760 8 55 25 165 36 245 11 80 36 222 54 315 19 94 44 233 56 310 40 261
61 352 79 341 5 -3 43 -63 84 -133z"/>
<path d="M4345 4329 c-27 -12 -117 -40 -200 -64 -284 -83 -426 -137 -461 -176
-15 -17 -16 -26 -6 -67 6 -26 16 -81 22 -122 17 -113 51 -257 150 -633 202
-758 236 -857 296 -857 13 0 78 27 143 59 65 33 232 105 372 161 140 55 333
139 429 185 96 45 193 89 215 95 77 24 170 79 240 140 39 33 83 68 98 76 34
18 47 50 47 112 0 61 -122 505 -163 596 -58 124 -66 129 -442 275 -126 50
-279 111 -340 136 -144 61 -279 105 -318 104 -18 0 -54 -9 -82 -20z m0 -160
c-114 -157 -172 -279 -132 -279 8 0 21 8 29 18 18 21 160 284 178 330 12 30
16 32 44 26 17 -3 76 -24 131 -46 55 -23 117 -48 138 -56 20 -8 37 -18 37 -21
0 -4 -39 -26 -87 -50 -49 -23 -122 -62 -163 -86 -41 -24 -111 -62 -155 -84
-44 -22 -77 -41 -74 -41 27 -1 149 48 328 132 l215 101 40 -14 41 -14 6 -235
c3 -129 9 -259 14 -287 4 -29 5 -53 1 -53 -5 0 -195 100 -361 191 -175 95
-786 352 -801 336 -2 -1 92 -52 209 -111 117 -60 213 -110 214 -110 1 -1 -5
-42 -13 -91 -21 -131 -37 -787 -24 -989 6 -87 7 -175 4 -194 -7 -35 -8 -34
-30 43 -13 44 -58 204 -100 355 -123 448 -233 827 -274 952 -54 163 -54 159 0
185 25 12 159 52 299 88 139 36 274 74 300 85 25 10 47 17 49 15 2 -2 -27 -45
-63 -96z m748 -154 c78 -31 182 -71 230 -90 49 -19 95 -35 102 -35 8 0 18 -17
23 -37 60 -243 117 -467 139 -550 l28 -102 -35 -36 c-23 -24 -119 -78 -301
-170 -277 -140 -355 -174 -699 -307 -113 -43 -242 -99 -287 -123 -59 -31 -83
-40 -83 -29 0 8 3 14 8 14 15 0 166 130 204 177 22 26 120 146 217 267 97 120
212 263 256 317 l79 99 111 -58 c211 -111 405 -185 405 -154 0 21 -60 57 -260
156 -118 59 -218 110 -222 114 -4 4 -14 81 -23 172 -27 289 -36 374 -42 403
-3 15 -2 27 1 27 4 0 71 -25 149 -55z m-493 -402 c58 -33 155 -86 215 -118 61
-32 118 -64 129 -71 17 -12 7 -25 -125 -161 -79 -81 -209 -229 -289 -328 -126
-157 -281 -325 -300 -325 -4 0 -7 51 -8 113 -1 61 -7 288 -13 502 -5 215 -7
433 -3 486 l6 97 142 -68 c78 -37 189 -94 246 -127z"/>
<path d="M5313 3779 c-131 -110 -303 -274 -303 -288 0 -62 151 58 324 258 131
152 129 156 -21 30z"/>
<path d="M18792 3537 c-26 -28 -23 -18 -112 -357 -38 -146 -83 -298 -99 -338
-24 -57 -28 -78 -20 -93 16 -31 48 -22 106 31 49 45 179 124 244 149 26 9 30
5 105 -92 170 -218 216 -264 252 -253 22 7 21 3 91 216 103 314 144 527 109
573 -18 24 -485 163 -608 182 -39 6 -48 4 -68 -18z m313 -122 c72 -24 167 -53
213 -65 l82 -22 0 -42 c0 -60 -43 -227 -107 -419 -54 -161 -57 -167 -75 -150
-10 9 -68 83 -129 165 -94 126 -115 148 -138 148 -14 0 -75 -25 -136 -55 -60
-29 -110 -53 -111 -52 -1 1 27 119 62 262 36 143 67 270 69 282 5 21 6 21 72
6 38 -9 127 -35 198 -58z"/>
<path d="M16710 2953 c-75 -29 -144 -114 -176 -216 l-18 -57 -31 30 c-38 37
-80 50 -159 50 -80 0 -133 -18 -177 -60 -69 -66 -74 -159 -16 -273 47 -90 113
-137 371 -267 236 -118 280 -133 321 -106 73 48 199 435 199 611 0 62 -5 89
-21 121 -26 49 -114 137 -158 158 -32 16 -105 20 -135 9z m141 -140 c63 -59
79 -89 79 -148 0 -92 -70 -350 -128 -473 -21 -45 -28 -52 -46 -46 -11 4 -112
52 -224 106 -271 134 -341 198 -342 315 0 72 70 111 180 101 71 -7 122 -45
138 -103 11 -40 15 -45 41 -45 38 0 45 11 65 110 23 107 49 163 95 200 52 43
82 40 142 -17z"/>
<path d="M7109 2929 c-27 -27 -19 -42 136 -279 247 -377 307 -431 675 -607
150 -72 420 -216 553 -295 85 -50 514 -279 621 -332 208 -101 425 -176 512
-176 17 0 53 -9 79 -21 31 -14 58 -19 77 -15 78 16 202 136 251 246 28 62 34
187 13 261 -28 95 -75 131 -292 224 -168 73 -557 267 -754 377 -163 91 -639
300 -815 358 -55 18 -140 50 -190 71 -58 24 -104 37 -130 37 -25 -1 -88 16
-167 45 -119 44 -175 57 -447 106 -101 18 -104 18 -122 0z m263 -88 c35 -11
128 -34 208 -52 80 -17 147 -33 148 -35 2 -1 -19 -14 -48 -29 -103 -52 -182
-150 -198 -247 l-7 -40 -61 88 c-91 133 -90 129 -50 153 33 21 69 77 60 93 -3
4 -20 8 -39 8 -87 0 -188 40 -171 68 11 18 88 14 158 -7z m579 -170 c52 -21
139 -53 194 -71 157 -52 627 -254 765 -329 319 -174 514 -269 790 -383 266
-110 296 -138 288 -259 -6 -77 -48 -177 -92 -218 l-26 -24 -337 170 c-186 93
-459 224 -608 292 -148 67 -399 189 -556 271 -157 82 -349 178 -428 214 -78
36 -178 88 -222 116 -44 28 -93 56 -110 62 l-29 10 18 30 c34 59 180 157 233
158 15 0 69 -17 120 -39z m-338 -222 c23 -12 71 -41 105 -65 35 -24 100 -60
145 -81 82 -37 142 -68 592 -299 132 -67 384 -185 560 -262 176 -77 372 -163
435 -192 63 -29 180 -79 260 -111 80 -32 146 -62 148 -67 4 -12 -59 -59 -101
-77 -55 -23 -150 -12 -262 29 -171 64 -676 322 -997 508 -84 50 -224 127 -398
220 -36 19 -108 54 -160 77 -52 24 -150 74 -217 113 -113 64 -124 73 -143 115
-18 42 -28 113 -15 113 3 0 25 -10 48 -21z"/>
<path d="M7690 2621 c0 -28 100 -79 276 -141 48 -17 165 -73 259 -125 251
-137 313 -167 490 -235 88 -34 248 -99 355 -145 427 -181 531 -226 678 -290
84 -37 155 -65 157 -63 3 3 -73 46 -168 96 -209 110 -738 344 -1197 529 -8 4
-117 62 -242 130 -124 68 -268 139 -320 158 -51 18 -120 45 -152 59 -69 31
-136 44 -136 27z"/>
<path d="M10918 2830 c-51 -15 -83 -42 -120 -104 -30 -49 -38 -73 -38 -110 0
-44 4 -53 43 -91 95 -95 192 -79 266 45 28 47 29 142 1 187 -33 54 -100 87
-152 73z m50 -106 c39 -27 23 -136 -25 -162 -22 -13 -74 3 -95 29 -23 28 -23
61 2 109 18 36 24 40 58 40 21 0 48 -7 60 -16z"/>
<path d="M5990 2304 c-75 -43 -139 -96 -154 -128 -16 -35 -10 -83 22 -182 37
-110 73 -247 79 -295 5 -42 3 -48 -18 -60 -84 -44 -250 -164 -255 -184 -8 -33
16 -81 82 -165 33 -41 98 -129 145 -195 100 -140 118 -151 182 -117 65 35 261
200 274 231 6 15 29 39 50 53 22 14 61 44 87 67 26 23 126 93 221 157 190 126
225 158 225 208 0 34 -143 328 -223 458 -45 74 -93 108 -151 108 -47 0 -148
-39 -237 -91 l-71 -41 -30 29 c-16 15 -47 58 -69 94 -52 89 -79 99 -159 53z
m89 -119 c45 -79 120 -155 154 -155 15 0 83 29 152 65 119 62 171 77 201 57
11 -7 74 -104 74 -114 0 -3 -26 -15 -57 -27 -135 -50 -211 -108 -196 -147 14
-38 78 -6 196 99 37 33 69 58 71 56 5 -5 85 -178 86 -186 1 -4 -16 -12 -37
-18 -53 -16 -134 -59 -172 -90 -47 -40 -39 -85 14 -85 8 0 59 38 114 85 l100
84 25 -44 c44 -75 46 -73 -109 -184 -77 -56 -178 -132 -225 -170 -47 -39 -104
-80 -128 -91 l-43 -22 -26 23 c-14 13 -57 65 -96 114 -39 50 -88 110 -109 134
-32 37 -38 51 -38 91 0 54 -34 192 -86 351 -20 59 -34 116 -32 125 2 14 118
104 133 104 2 0 17 -25 34 -55z m-26 -741 c48 -60 112 -134 142 -165 l55 -57
-33 -25 -33 -25 -67 82 c-37 45 -87 116 -112 158 -24 42 -56 86 -71 97 -26 21
-27 22 -8 36 10 8 24 13 29 11 6 -1 49 -52 98 -112z"/>
<path d="M12365 1637 c11 -8 61 -36 110 -64 380 -212 747 -374 1090 -479 115
-35 253 -80 305 -99 125 -47 163 -55 206 -44 112 31 -43 109 -478 240 -109 33
-283 94 -386 135 -103 42 -268 109 -367 149 -175 71 -465 175 -488 175 -6 0
-3 -6 8 -13z"/>
<path d="M12190 1416 c0 -10 284 -170 504 -283 554 -287 842 -424 1144 -544
87 -35 132 -37 158 -8 19 21 18 21 -7 43 -14 13 -138 70 -275 128 -137 59
-377 168 -534 243 -325 156 -419 198 -741 330 -218 89 -249 101 -249 91z"/>
<path d="M12130 1091 c0 -4 51 -32 113 -61 61 -28 213 -105 337 -169 124 -64
330 -168 458 -231 211 -103 240 -115 298 -118 190 -12 63 69 -546 351 -267
123 -357 158 -515 201 -142 39 -145 40 -145 27z"/>
</g>
</svg>
